<svg width="355" height="218" viewBox="0 0 355 218" fill="none" xmlns="http://www.w3.org/2000/svg">
<g filter="url(#filter0_d_148_12)">
<rect x="24" y="20" width="307" height="170" fill="white"/>
</g>
<path d="M54.0078 100.961C54.0078 101.638 53.8385 102.216 53.5 102.695C53.1667 103.169 52.6979 103.531 52.0938 103.781C51.4896 104.031 50.7786 104.156 49.9609 104.156C49.5286 104.156 49.1198 104.135 48.7344 104.094C48.349 104.052 47.9948 103.992 47.6719 103.914C47.349 103.836 47.0651 103.74 46.8203 103.625V102.352C47.2109 102.513 47.6875 102.664 48.25 102.805C48.8125 102.94 49.401 103.008 50.0156 103.008C50.5885 103.008 51.0729 102.932 51.4688 102.781C51.8646 102.625 52.1641 102.404 52.3672 102.117C52.5755 101.826 52.6797 101.477 52.6797 101.07C52.6797 100.68 52.5938 100.354 52.4219 100.094C52.25 99.8281 51.9635 99.5885 51.5625 99.375C51.1667 99.1562 50.625 98.9245 49.9375 98.6797C49.4531 98.5078 49.026 98.3203 48.6562 98.1172C48.2865 97.9089 47.9766 97.6745 47.7266 97.4141C47.4766 97.1536 47.2865 96.8516 47.1562 96.5078C47.0312 96.1641 46.9688 95.7708 46.9688 95.3281C46.9688 94.7188 47.1224 94.1979 47.4297 93.7656C47.7422 93.3281 48.1719 92.9948 48.7188 92.7656C49.2708 92.5312 49.9036 92.4141 50.6172 92.4141C51.2266 92.4141 51.7891 92.4714 52.3047 92.5859C52.8255 92.7005 53.3021 92.8542 53.7344 93.0469L53.3203 94.1875C52.9089 94.0156 52.4714 93.8724 52.0078 93.7578C51.5495 93.6432 51.0755 93.5859 50.5859 93.5859C50.0964 93.5859 49.6823 93.6589 49.3438 93.8047C49.0104 93.9453 48.7552 94.1458 48.5781 94.4062C48.401 94.6667 48.3125 94.9766 48.3125 95.3359C48.3125 95.737 48.3958 96.0703 48.5625 96.3359C48.7344 96.6016 49.0052 96.8385 49.375 97.0469C49.75 97.25 50.2448 97.4635 50.8594 97.6875C51.5312 97.9323 52.1016 98.1927 52.5703 98.4688C53.0391 98.7396 53.3958 99.0729 53.6406 99.4688C53.8854 99.8594 54.0078 100.357 54.0078 100.961ZM63.2188 95.4375V104H62.1562L61.9688 102.797H61.8984C61.7214 103.094 61.4922 103.344 61.2109 103.547C60.9297 103.75 60.612 103.901 60.2578 104C59.9089 104.104 59.5365 104.156 59.1406 104.156C58.4635 104.156 57.8958 104.047 57.4375 103.828C56.9792 103.609 56.6328 103.271 56.3984 102.812C56.1693 102.354 56.0547 101.766 56.0547 101.047V95.4375H57.3672V100.953C57.3672 101.667 57.5286 102.201 57.8516 102.555C58.1745 102.904 58.6667 103.078 59.3281 103.078C59.9635 103.078 60.4688 102.958 60.8438 102.719C61.224 102.479 61.4974 102.128 61.6641 101.664C61.8307 101.195 61.9141 100.622 61.9141 99.9453V95.4375H63.2188ZM67.2578 91.8438V94.8828C67.2578 95.2318 67.2474 95.5703 67.2266 95.8984C67.2109 96.2266 67.1979 96.4818 67.1875 96.6641H67.2578C67.4922 96.2786 67.8307 95.9531 68.2734 95.6875C68.7161 95.4219 69.2812 95.2891 69.9688 95.2891C71.0417 95.2891 71.8958 95.6615 72.5312 96.4062C73.1719 97.1458 73.4922 98.2474 73.4922 99.7109C73.4922 100.674 73.3464 101.487 73.0547 102.148C72.763 102.81 72.3516 103.31 71.8203 103.648C71.2891 103.987 70.6615 104.156 69.9375 104.156C69.2604 104.156 68.7031 104.031 68.2656 103.781C67.8333 103.526 67.5 103.216 67.2656 102.852H67.1641L66.8984 104H65.9609V91.8438H67.2578ZM69.7578 96.375C69.138 96.375 68.6458 96.4974 68.2812 96.7422C67.9167 96.9818 67.6536 97.3464 67.4922 97.8359C67.3359 98.3203 67.2578 98.9349 67.2578 99.6797V99.75C67.2578 100.828 67.4375 101.654 67.7969 102.227C68.1562 102.794 68.8099 103.078 69.7578 103.078C70.5547 103.078 71.151 102.786 71.5469 102.203C71.9479 101.62 72.1484 100.786 72.1484 99.7031C72.1484 98.599 71.9505 97.7682 71.5547 97.2109C71.1641 96.6536 70.5651 96.375 69.7578 96.375ZM81.2969 101.656C81.2969 102.203 81.1589 102.664 80.8828 103.039C80.612 103.409 80.2214 103.688 79.7109 103.875C79.2057 104.062 78.6016 104.156 77.8984 104.156C77.2995 104.156 76.7812 104.109 76.3438 104.016C75.9062 103.922 75.5234 103.789 75.1953 103.617V102.422C75.5443 102.594 75.9609 102.75 76.4453 102.891C76.9297 103.031 77.4245 103.102 77.9297 103.102C78.6693 103.102 79.2057 102.982 79.5391 102.742C79.8724 102.503 80.0391 102.177 80.0391 101.766C80.0391 101.531 79.9714 101.326 79.8359 101.148C79.7057 100.966 79.4844 100.792 79.1719 100.625C78.8594 100.453 78.4271 100.266 77.875 100.062C77.3281 99.8542 76.8542 99.6484 76.4531 99.4453C76.0573 99.237 75.75 98.9844 75.5312 98.6875C75.3177 98.3906 75.2109 98.0052 75.2109 97.5312C75.2109 96.8073 75.5026 96.2526 76.0859 95.8672C76.6745 95.4766 77.4453 95.2812 78.3984 95.2812C78.9141 95.2812 79.3958 95.3333 79.8438 95.4375C80.2969 95.5365 80.7188 95.6719 81.1094 95.8438L80.6719 96.8828C80.3177 96.7318 79.9401 96.6042 79.5391 96.5C79.138 96.3958 78.7292 96.3438 78.3125 96.3438C77.7135 96.3438 77.2526 96.4427 76.9297 96.6406C76.612 96.8385 76.4531 97.1094 76.4531 97.4531C76.4531 97.7188 76.526 97.9375 76.6719 98.1094C76.8229 98.2812 77.0625 98.4427 77.3906 98.5938C77.7188 98.7448 78.151 98.9219 78.6875 99.125C79.224 99.3229 79.6875 99.5286 80.0781 99.7422C80.4688 99.9505 80.7682 100.206 80.9766 100.508C81.1901 100.805 81.2969 101.188 81.2969 101.656ZM86.8125 104.156C86.0417 104.156 85.362 103.997 84.7734 103.68C84.1849 103.362 83.7266 102.878 83.3984 102.227C83.0703 101.576 82.9062 100.755 82.9062 99.7656C82.9062 98.7292 83.0781 97.8828 83.4219 97.2266C83.7708 96.5651 84.25 96.0755 84.8594 95.7578C85.4688 95.4401 86.1615 95.2812 86.9375 95.2812C87.3646 95.2812 87.776 95.3255 88.1719 95.4141C88.5729 95.4974 88.901 95.6042 89.1562 95.7344L88.7656 96.8203C88.5052 96.7161 88.2031 96.6224 87.8594 96.5391C87.5208 96.4557 87.2031 96.4141 86.9062 96.4141C86.3125 96.4141 85.8177 96.5417 85.4219 96.7969C85.0312 97.0521 84.737 97.4271 84.5391 97.9219C84.3464 98.4167 84.25 99.026 84.25 99.75C84.25 100.443 84.3438 101.034 84.5312 101.523C84.724 102.013 85.0078 102.388 85.3828 102.648C85.763 102.904 86.237 103.031 86.8047 103.031C87.2578 103.031 87.6667 102.984 88.0312 102.891C88.3958 102.792 88.7266 102.677 89.0234 102.547V103.703C88.737 103.849 88.4167 103.961 88.0625 104.039C87.7135 104.117 87.2969 104.156 86.8125 104.156ZM94.9453 95.2812C95.1172 95.2812 95.2969 95.2917 95.4844 95.3125C95.6719 95.3281 95.8385 95.3516 95.9844 95.3828L95.8203 96.5859C95.6797 96.5495 95.5234 96.5208 95.3516 96.5C95.1797 96.4792 95.0182 96.4688 94.8672 96.4688C94.5234 96.4688 94.1979 96.5391 93.8906 96.6797C93.5885 96.8151 93.3229 97.013 93.0938 97.2734C92.8646 97.5286 92.6849 97.8385 92.5547 98.2031C92.4245 98.5625 92.3594 98.9635 92.3594 99.4062V104H91.0547V95.4375H92.1328L92.2734 97.0156H92.3281C92.5052 96.6979 92.7188 96.4089 92.9688 96.1484C93.2188 95.8828 93.5078 95.6719 93.8359 95.5156C94.1693 95.3594 94.5391 95.2812 94.9453 95.2812ZM98.8984 95.4375V104H97.6016V95.4375H98.8984ZM98.2656 92.2344C98.4792 92.2344 98.6615 92.3047 98.8125 92.4453C98.9688 92.5807 99.0469 92.7943 99.0469 93.0859C99.0469 93.3724 98.9688 93.5859 98.8125 93.7266C98.6615 93.8672 98.4792 93.9375 98.2656 93.9375C98.0417 93.9375 97.8542 93.8672 97.7031 93.7266C97.5573 93.5859 97.4844 93.3724 97.4844 93.0859C97.4844 92.7943 97.5573 92.5807 97.7031 92.4453C97.8542 92.3047 98.0417 92.2344 98.2656 92.2344ZM102.945 91.8438V94.8828C102.945 95.2318 102.935 95.5703 102.914 95.8984C102.898 96.2266 102.885 96.4818 102.875 96.6641H102.945C103.18 96.2786 103.518 95.9531 103.961 95.6875C104.404 95.4219 104.969 95.2891 105.656 95.2891C106.729 95.2891 107.583 95.6615 108.219 96.4062C108.859 97.1458 109.18 98.2474 109.18 99.7109C109.18 100.674 109.034 101.487 108.742 102.148C108.451 102.81 108.039 103.31 107.508 103.648C106.977 103.987 106.349 104.156 105.625 104.156C104.948 104.156 104.391 104.031 103.953 103.781C103.521 103.526 103.188 103.216 102.953 102.852H102.852L102.586 104H101.648V91.8438H102.945ZM105.445 96.375C104.826 96.375 104.333 96.4974 103.969 96.7422C103.604 96.9818 103.341 97.3464 103.18 97.8359C103.023 98.3203 102.945 98.9349 102.945 99.6797V99.75C102.945 100.828 103.125 101.654 103.484 102.227C103.844 102.794 104.497 103.078 105.445 103.078C106.242 103.078 106.839 102.786 107.234 102.203C107.635 101.62 107.836 100.786 107.836 99.7031C107.836 98.599 107.638 97.7682 107.242 97.2109C106.852 96.6536 106.253 96.375 105.445 96.375ZM114.742 95.2812C115.471 95.2812 116.096 95.4427 116.617 95.7656C117.138 96.0885 117.536 96.5417 117.812 97.125C118.089 97.7031 118.227 98.3802 118.227 99.1562V99.9609H112.312C112.328 100.966 112.578 101.732 113.062 102.258C113.547 102.784 114.229 103.047 115.109 103.047C115.651 103.047 116.13 102.997 116.547 102.898C116.964 102.799 117.396 102.654 117.844 102.461V103.602C117.411 103.794 116.982 103.935 116.555 104.023C116.133 104.112 115.633 104.156 115.055 104.156C114.232 104.156 113.513 103.99 112.898 103.656C112.289 103.318 111.815 102.823 111.477 102.172C111.138 101.521 110.969 100.724 110.969 99.7812C110.969 98.8594 111.122 98.0625 111.43 97.3906C111.742 96.7135 112.18 96.1927 112.742 95.8281C113.31 95.4635 113.977 95.2812 114.742 95.2812ZM114.727 96.3438C114.034 96.3438 113.482 96.5703 113.07 97.0234C112.659 97.4766 112.414 98.1094 112.336 98.9219H116.867C116.862 98.4115 116.781 97.9635 116.625 97.5781C116.474 97.1875 116.242 96.8854 115.93 96.6719C115.617 96.4531 115.216 96.3438 114.727 96.3438ZM127.352 103.094C127.565 103.094 127.784 103.076 128.008 103.039C128.232 103.003 128.414 102.958 128.555 102.906V103.914C128.404 103.982 128.193 104.039 127.922 104.086C127.656 104.133 127.396 104.156 127.141 104.156C126.688 104.156 126.276 104.078 125.906 103.922C125.536 103.76 125.24 103.49 125.016 103.109C124.797 102.729 124.688 102.203 124.688 101.531V96.4531H123.469V95.8203L124.695 95.3125L125.211 93.4531H125.992V95.4375H128.5V96.4531H125.992V101.492C125.992 102.029 126.115 102.43 126.359 102.695C126.609 102.961 126.94 103.094 127.352 103.094ZM137.672 99.7031C137.672 100.406 137.581 101.034 137.398 101.586C137.216 102.138 136.953 102.604 136.609 102.984C136.266 103.365 135.849 103.656 135.359 103.859C134.875 104.057 134.326 104.156 133.711 104.156C133.138 104.156 132.612 104.057 132.133 103.859C131.659 103.656 131.247 103.365 130.898 102.984C130.555 102.604 130.286 102.138 130.094 101.586C129.906 101.034 129.812 100.406 129.812 99.7031C129.812 98.7656 129.971 97.9688 130.289 97.3125C130.607 96.651 131.06 96.1484 131.648 95.8047C132.242 95.4557 132.948 95.2812 133.766 95.2812C134.547 95.2812 135.229 95.4557 135.812 95.8047C136.401 96.1536 136.857 96.6589 137.18 97.3203C137.508 97.9766 137.672 98.7708 137.672 99.7031ZM131.156 99.7031C131.156 100.391 131.247 100.987 131.43 101.492C131.612 101.997 131.893 102.388 132.273 102.664C132.654 102.94 133.143 103.078 133.742 103.078C134.336 103.078 134.823 102.94 135.203 102.664C135.589 102.388 135.872 101.997 136.055 101.492C136.237 100.987 136.328 100.391 136.328 99.7031C136.328 99.0208 136.237 98.4323 136.055 97.9375C135.872 97.4375 135.591 97.0521 135.211 96.7812C134.831 96.5104 134.339 96.375 133.734 96.375C132.844 96.375 132.19 96.6693 131.773 97.2578C131.362 97.8464 131.156 98.6615 131.156 99.7031ZM147.961 95.2812C148.133 95.2812 148.312 95.2917 148.5 95.3125C148.688 95.3281 148.854 95.3516 149 95.3828L148.836 96.5859C148.695 96.5495 148.539 96.5208 148.367 96.5C148.195 96.4792 148.034 96.4688 147.883 96.4688C147.539 96.4688 147.214 96.5391 146.906 96.6797C146.604 96.8151 146.339 97.013 146.109 97.2734C145.88 97.5286 145.701 97.8385 145.57 98.2031C145.44 98.5625 145.375 98.9635 145.375 99.4062V104H144.07V95.4375H145.148L145.289 97.0156H145.344C145.521 96.6979 145.734 96.4089 145.984 96.1484C146.234 95.8828 146.523 95.6719 146.852 95.5156C147.185 95.3594 147.555 95.2812 147.961 95.2812ZM153.914 95.2812C154.643 95.2812 155.268 95.4427 155.789 95.7656C156.31 96.0885 156.708 96.5417 156.984 97.125C157.26 97.7031 157.398 98.3802 157.398 99.1562V99.9609H151.484C151.5 100.966 151.75 101.732 152.234 102.258C152.719 102.784 153.401 103.047 154.281 103.047C154.823 103.047 155.302 102.997 155.719 102.898C156.135 102.799 156.568 102.654 157.016 102.461V103.602C156.583 103.794 156.154 103.935 155.727 104.023C155.305 104.112 154.805 104.156 154.227 104.156C153.404 104.156 152.685 103.99 152.07 103.656C151.461 103.318 150.987 102.823 150.648 102.172C150.31 101.521 150.141 100.724 150.141 99.7812C150.141 98.8594 150.294 98.0625 150.602 97.3906C150.914 96.7135 151.352 96.1927 151.914 95.8281C152.482 95.4635 153.148 95.2812 153.914 95.2812ZM153.898 96.3438C153.206 96.3438 152.654 96.5703 152.242 97.0234C151.831 97.4766 151.586 98.1094 151.508 98.9219H156.039C156.034 98.4115 155.953 97.9635 155.797 97.5781C155.646 97.1875 155.414 96.8854 155.102 96.6719C154.789 96.4531 154.388 96.3438 153.898 96.3438ZM163.031 104.156C162.26 104.156 161.581 103.997 160.992 103.68C160.404 103.362 159.945 102.878 159.617 102.227C159.289 101.576 159.125 100.755 159.125 99.7656C159.125 98.7292 159.297 97.8828 159.641 97.2266C159.99 96.5651 160.469 96.0755 161.078 95.7578C161.688 95.4401 162.38 95.2812 163.156 95.2812C163.583 95.2812 163.995 95.3255 164.391 95.4141C164.792 95.4974 165.12 95.6042 165.375 95.7344L164.984 96.8203C164.724 96.7161 164.422 96.6224 164.078 96.5391C163.74 96.4557 163.422 96.4141 163.125 96.4141C162.531 96.4141 162.036 96.5417 161.641 96.7969C161.25 97.0521 160.956 97.4271 160.758 97.9219C160.565 98.4167 160.469 99.026 160.469 99.75C160.469 100.443 160.562 101.034 160.75 101.523C160.943 102.013 161.227 102.388 161.602 102.648C161.982 102.904 162.456 103.031 163.023 103.031C163.477 103.031 163.885 102.984 164.25 102.891C164.615 102.792 164.945 102.677 165.242 102.547V103.703C164.956 103.849 164.635 103.961 164.281 104.039C163.932 104.117 163.516 104.156 163.031 104.156ZM170.57 95.2812C171.299 95.2812 171.924 95.4427 172.445 95.7656C172.966 96.0885 173.365 96.5417 173.641 97.125C173.917 97.7031 174.055 98.3802 174.055 99.1562V99.9609H168.141C168.156 100.966 168.406 101.732 168.891 102.258C169.375 102.784 170.057 103.047 170.938 103.047C171.479 103.047 171.958 102.997 172.375 102.898C172.792 102.799 173.224 102.654 173.672 102.461V103.602C173.24 103.794 172.81 103.935 172.383 104.023C171.961 104.112 171.461 104.156 170.883 104.156C170.06 104.156 169.341 103.99 168.727 103.656C168.117 103.318 167.643 102.823 167.305 102.172C166.966 101.521 166.797 100.724 166.797 99.7812C166.797 98.8594 166.951 98.0625 167.258 97.3906C167.57 96.7135 168.008 96.1927 168.57 95.8281C169.138 95.4635 169.805 95.2812 170.57 95.2812ZM170.555 96.3438C169.862 96.3438 169.31 96.5703 168.898 97.0234C168.487 97.4766 168.242 98.1094 168.164 98.9219H172.695C172.69 98.4115 172.609 97.9635 172.453 97.5781C172.302 97.1875 172.07 96.8854 171.758 96.6719C171.445 96.4531 171.044 96.3438 170.555 96.3438ZM177.555 95.4375V104H176.258V95.4375H177.555ZM176.922 92.2344C177.135 92.2344 177.318 92.3047 177.469 92.4453C177.625 92.5807 177.703 92.7943 177.703 93.0859C177.703 93.3724 177.625 93.5859 177.469 93.7266C177.318 93.8672 177.135 93.9375 176.922 93.9375C176.698 93.9375 176.51 93.8672 176.359 93.7266C176.214 93.5859 176.141 93.3724 176.141 93.0859C176.141 92.7943 176.214 92.5807 176.359 92.4453C176.51 92.3047 176.698 92.2344 176.922 92.2344ZM182.188 104L178.938 95.4375H180.328L182.211 100.617C182.341 100.971 182.474 101.362 182.609 101.789C182.745 102.216 182.839 102.56 182.891 102.82H182.945C183.008 102.56 183.112 102.216 183.258 101.789C183.404 101.357 183.536 100.966 183.656 100.617L185.539 95.4375H186.93L183.672 104H182.188ZM191.602 95.2812C192.331 95.2812 192.956 95.4427 193.477 95.7656C193.997 96.0885 194.396 96.5417 194.672 97.125C194.948 97.7031 195.086 98.3802 195.086 99.1562V99.9609H189.172C189.188 100.966 189.438 101.732 189.922 102.258C190.406 102.784 191.089 103.047 191.969 103.047C192.51 103.047 192.99 102.997 193.406 102.898C193.823 102.799 194.255 102.654 194.703 102.461V103.602C194.271 103.794 193.841 103.935 193.414 104.023C192.992 104.112 192.492 104.156 191.914 104.156C191.091 104.156 190.372 103.99 189.758 103.656C189.148 103.318 188.674 102.823 188.336 102.172C187.997 101.521 187.828 100.724 187.828 99.7812C187.828 98.8594 187.982 98.0625 188.289 97.3906C188.602 96.7135 189.039 96.1927 189.602 95.8281C190.169 95.4635 190.836 95.2812 191.602 95.2812ZM191.586 96.3438C190.893 96.3438 190.341 96.5703 189.93 97.0234C189.518 97.4766 189.273 98.1094 189.195 98.9219H193.727C193.721 98.4115 193.641 97.9635 193.484 97.5781C193.333 97.1875 193.102 96.8854 192.789 96.6719C192.477 96.4531 192.076 96.3438 191.586 96.3438ZM202.742 95.4375V104H201.445V95.4375H202.742ZM202.109 92.2344C202.323 92.2344 202.505 92.3047 202.656 92.4453C202.812 92.5807 202.891 92.7943 202.891 93.0859C202.891 93.3724 202.812 93.5859 202.656 93.7266C202.505 93.8672 202.323 93.9375 202.109 93.9375C201.885 93.9375 201.698 93.8672 201.547 93.7266C201.401 93.5859 201.328 93.3724 201.328 93.0859C201.328 92.7943 201.401 92.5807 201.547 92.4453C201.698 92.3047 201.885 92.2344 202.109 92.2344ZM209.547 95.2812C210.562 95.2812 211.331 95.5312 211.852 96.0312C212.372 96.526 212.633 97.3229 212.633 98.4219V104H211.352V98.5078C211.352 97.7943 211.188 97.2604 210.859 96.9062C210.536 96.5521 210.039 96.375 209.367 96.375C208.419 96.375 207.753 96.6432 207.367 97.1797C206.982 97.7161 206.789 98.4948 206.789 99.5156V104H205.492V95.4375H206.539L206.734 96.6719H206.805C206.987 96.3698 207.219 96.1172 207.5 95.9141C207.781 95.7057 208.096 95.5495 208.445 95.4453C208.794 95.3359 209.161 95.2812 209.547 95.2812ZM220.844 101.656C220.844 102.203 220.706 102.664 220.43 103.039C220.159 103.409 219.768 103.688 219.258 103.875C218.753 104.062 218.148 104.156 217.445 104.156C216.846 104.156 216.328 104.109 215.891 104.016C215.453 103.922 215.07 103.789 214.742 103.617V102.422C215.091 102.594 215.508 102.75 215.992 102.891C216.477 103.031 216.971 103.102 217.477 103.102C218.216 103.102 218.753 102.982 219.086 102.742C219.419 102.503 219.586 102.177 219.586 101.766C219.586 101.531 219.518 101.326 219.383 101.148C219.253 100.966 219.031 100.792 218.719 100.625C218.406 100.453 217.974 100.266 217.422 100.062C216.875 99.8542 216.401 99.6484 216 99.4453C215.604 99.237 215.297 98.9844 215.078 98.6875C214.865 98.3906 214.758 98.0052 214.758 97.5312C214.758 96.8073 215.049 96.2526 215.633 95.8672C216.221 95.4766 216.992 95.2812 217.945 95.2812C218.461 95.2812 218.943 95.3333 219.391 95.4375C219.844 95.5365 220.266 95.6719 220.656 95.8438L220.219 96.8828C219.865 96.7318 219.487 96.6042 219.086 96.5C218.685 96.3958 218.276 96.3438 217.859 96.3438C217.26 96.3438 216.799 96.4427 216.477 96.6406C216.159 96.8385 216 97.1094 216 97.4531C216 97.7188 216.073 97.9375 216.219 98.1094C216.37 98.2812 216.609 98.4427 216.938 98.5938C217.266 98.7448 217.698 98.9219 218.234 99.125C218.771 99.3229 219.234 99.5286 219.625 99.7422C220.016 99.9505 220.315 100.206 220.523 100.508C220.737 100.805 220.844 101.188 220.844 101.656ZM226.953 95.2812C228.021 95.2812 228.872 95.6484 229.508 96.3828C230.143 97.1172 230.461 98.2214 230.461 99.6953C230.461 100.669 230.315 101.487 230.023 102.148C229.732 102.81 229.32 103.31 228.789 103.648C228.263 103.987 227.641 104.156 226.922 104.156C226.469 104.156 226.07 104.096 225.727 103.977C225.383 103.857 225.089 103.695 224.844 103.492C224.599 103.289 224.396 103.068 224.234 102.828H224.141C224.156 103.031 224.174 103.276 224.195 103.562C224.221 103.849 224.234 104.099 224.234 104.312V107.828H222.93V95.4375H224L224.172 96.7031H224.234C224.401 96.4427 224.604 96.2057 224.844 95.9922C225.083 95.7734 225.375 95.6016 225.719 95.4766C226.068 95.3464 226.479 95.2812 226.953 95.2812ZM226.727 96.375C226.133 96.375 225.654 96.4896 225.289 96.7188C224.93 96.9479 224.667 97.2917 224.5 97.75C224.333 98.2031 224.245 98.7734 224.234 99.4609V99.7109C224.234 100.435 224.312 101.047 224.469 101.547C224.63 102.047 224.893 102.427 225.258 102.688C225.628 102.948 226.122 103.078 226.742 103.078C227.273 103.078 227.716 102.935 228.07 102.648C228.424 102.362 228.688 101.964 228.859 101.453C229.036 100.938 229.125 100.346 229.125 99.6797C229.125 98.6693 228.927 97.8672 228.531 97.2734C228.141 96.6745 227.539 96.375 226.727 96.375ZM234.023 95.4375V104H232.727V95.4375H234.023ZM233.391 92.2344C233.604 92.2344 233.786 92.3047 233.938 92.4453C234.094 92.5807 234.172 92.7943 234.172 93.0859C234.172 93.3724 234.094 93.5859 233.938 93.7266C233.786 93.8672 233.604 93.9375 233.391 93.9375C233.167 93.9375 232.979 93.8672 232.828 93.7266C232.682 93.5859 232.609 93.3724 232.609 93.0859C232.609 92.7943 232.682 92.5807 232.828 92.4453C232.979 92.3047 233.167 92.2344 233.391 92.2344ZM240.664 95.2812C240.836 95.2812 241.016 95.2917 241.203 95.3125C241.391 95.3281 241.557 95.3516 241.703 95.3828L241.539 96.5859C241.398 96.5495 241.242 96.5208 241.07 96.5C240.898 96.4792 240.737 96.4688 240.586 96.4688C240.242 96.4688 239.917 96.5391 239.609 96.6797C239.307 96.8151 239.042 97.013 238.812 97.2734C238.583 97.5286 238.404 97.8385 238.273 98.2031C238.143 98.5625 238.078 98.9635 238.078 99.4062V104H236.773V95.4375H237.852L237.992 97.0156H238.047C238.224 96.6979 238.438 96.4089 238.688 96.1484C238.938 95.8828 239.227 95.6719 239.555 95.5156C239.888 95.3594 240.258 95.2812 240.664 95.2812ZM246.523 95.2969C247.544 95.2969 248.302 95.526 248.797 95.9844C249.292 96.4427 249.539 97.1745 249.539 98.1797V104H248.594L248.344 102.734H248.281C248.042 103.047 247.792 103.31 247.531 103.523C247.271 103.732 246.969 103.891 246.625 104C246.286 104.104 245.87 104.156 245.375 104.156C244.854 104.156 244.391 104.065 243.984 103.883C243.583 103.701 243.266 103.424 243.031 103.055C242.802 102.685 242.688 102.216 242.688 101.648C242.688 100.794 243.026 100.138 243.703 99.6797C244.38 99.2214 245.411 98.9714 246.797 98.9297L248.273 98.8672V98.3438C248.273 97.6042 248.115 97.0859 247.797 96.7891C247.479 96.4922 247.031 96.3438 246.453 96.3438C246.005 96.3438 245.578 96.4089 245.172 96.5391C244.766 96.6693 244.38 96.8229 244.016 97L243.617 96.0156C244.003 95.8177 244.445 95.6484 244.945 95.5078C245.445 95.3672 245.971 95.2969 246.523 95.2969ZM248.258 99.7812L246.953 99.8359C245.885 99.8776 245.133 100.052 244.695 100.359C244.258 100.667 244.039 101.102 244.039 101.664C244.039 102.154 244.188 102.516 244.484 102.75C244.781 102.984 245.174 103.102 245.664 103.102C246.424 103.102 247.047 102.891 247.531 102.469C248.016 102.047 248.258 101.414 248.258 100.57V99.7812ZM254.977 103.094C255.19 103.094 255.409 103.076 255.633 103.039C255.857 103.003 256.039 102.958 256.18 102.906V103.914C256.029 103.982 255.818 104.039 255.547 104.086C255.281 104.133 255.021 104.156 254.766 104.156C254.312 104.156 253.901 104.078 253.531 103.922C253.161 103.76 252.865 103.49 252.641 103.109C252.422 102.729 252.312 102.203 252.312 101.531V96.4531H251.094V95.8203L252.32 95.3125L252.836 93.4531H253.617V95.4375H256.125V96.4531H253.617V101.492C253.617 102.029 253.74 102.43 253.984 102.695C254.234 102.961 254.565 103.094 254.977 103.094ZM259.211 95.4375V104H257.914V95.4375H259.211ZM258.578 92.2344C258.792 92.2344 258.974 92.3047 259.125 92.4453C259.281 92.5807 259.359 92.7943 259.359 93.0859C259.359 93.3724 259.281 93.5859 259.125 93.7266C258.974 93.8672 258.792 93.9375 258.578 93.9375C258.354 93.9375 258.167 93.8672 258.016 93.7266C257.87 93.5859 257.797 93.3724 257.797 93.0859C257.797 92.7943 257.87 92.5807 258.016 92.4453C258.167 92.3047 258.354 92.2344 258.578 92.2344ZM269.344 99.7031C269.344 100.406 269.253 101.034 269.07 101.586C268.888 102.138 268.625 102.604 268.281 102.984C267.938 103.365 267.521 103.656 267.031 103.859C266.547 104.057 265.997 104.156 265.383 104.156C264.81 104.156 264.284 104.057 263.805 103.859C263.331 103.656 262.919 103.365 262.57 102.984C262.227 102.604 261.958 102.138 261.766 101.586C261.578 101.034 261.484 100.406 261.484 99.7031C261.484 98.7656 261.643 97.9688 261.961 97.3125C262.279 96.651 262.732 96.1484 263.32 95.8047C263.914 95.4557 264.62 95.2812 265.438 95.2812C266.219 95.2812 266.901 95.4557 267.484 95.8047C268.073 96.1536 268.529 96.6589 268.852 97.3203C269.18 97.9766 269.344 98.7708 269.344 99.7031ZM262.828 99.7031C262.828 100.391 262.919 100.987 263.102 101.492C263.284 101.997 263.565 102.388 263.945 102.664C264.326 102.94 264.815 103.078 265.414 103.078C266.008 103.078 266.495 102.94 266.875 102.664C267.26 102.388 267.544 101.997 267.727 101.492C267.909 100.987 268 100.391 268 99.7031C268 99.0208 267.909 98.4323 267.727 97.9375C267.544 97.4375 267.263 97.0521 266.883 96.7812C266.503 96.5104 266.01 96.375 265.406 96.375C264.516 96.375 263.862 96.6693 263.445 97.2578C263.034 97.8464 262.828 98.6615 262.828 99.7031ZM275.641 95.2812C276.656 95.2812 277.424 95.5312 277.945 96.0312C278.466 96.526 278.727 97.3229 278.727 98.4219V104H277.445V98.5078C277.445 97.7943 277.281 97.2604 276.953 96.9062C276.63 96.5521 276.133 96.375 275.461 96.375C274.513 96.375 273.846 96.6432 273.461 97.1797C273.076 97.7161 272.883 98.4948 272.883 99.5156V104H271.586V95.4375H272.633L272.828 96.6719H272.898C273.081 96.3698 273.312 96.1172 273.594 95.9141C273.875 95.7057 274.19 95.5495 274.539 95.4453C274.888 95.3359 275.255 95.2812 275.641 95.2812ZM282.883 102.141L282.984 102.32C282.891 102.701 282.771 103.107 282.625 103.539C282.484 103.971 282.328 104.404 282.156 104.836C281.99 105.273 281.82 105.682 281.648 106.062H280.68C280.789 105.646 280.896 105.206 281 104.742C281.104 104.284 281.198 103.831 281.281 103.383C281.37 102.93 281.44 102.516 281.492 102.141H282.883ZM52.8203 117.438V126H51.5234V117.438H52.8203ZM52.1875 114.234C52.401 114.234 52.5833 114.305 52.7344 114.445C52.8906 114.581 52.9688 114.794 52.9688 115.086C52.9688 115.372 52.8906 115.586 52.7344 115.727C52.5833 115.867 52.401 115.938 52.1875 115.938C51.9635 115.938 51.776 115.867 51.625 115.727C51.4792 115.586 51.4062 115.372 51.4062 115.086C51.4062 114.794 51.4792 114.581 51.625 114.445C51.776 114.305 51.9635 114.234 52.1875 114.234ZM58.6172 126.156C57.5339 126.156 56.6745 125.786 56.0391 125.047C55.4089 124.307 55.0938 123.208 55.0938 121.75C55.0938 120.276 55.4167 119.164 56.0625 118.414C56.7083 117.659 57.5677 117.281 58.6406 117.281C59.0938 117.281 59.4896 117.341 59.8281 117.461C60.1667 117.581 60.4583 117.742 60.7031 117.945C60.9479 118.143 61.1536 118.37 61.3203 118.625H61.4141C61.3932 118.464 61.3724 118.242 61.3516 117.961C61.3307 117.68 61.3203 117.451 61.3203 117.273V113.844H62.6172V126H61.5703L61.375 124.781H61.3203C61.1589 125.036 60.9531 125.268 60.7031 125.477C60.4583 125.685 60.1641 125.852 59.8203 125.977C59.4818 126.096 59.0807 126.156 58.6172 126.156ZM58.8203 125.078C59.737 125.078 60.3854 124.818 60.7656 124.297C61.1458 123.776 61.3359 123.003 61.3359 121.977V121.742C61.3359 120.654 61.1536 119.818 60.7891 119.234C60.4297 118.651 59.7734 118.359 58.8203 118.359C58.0234 118.359 57.4271 118.667 57.0312 119.281C56.6354 119.891 56.4375 120.724 56.4375 121.781C56.4375 122.833 56.6328 123.646 57.0234 124.219C57.4193 124.792 58.0182 125.078 58.8203 125.078ZM68.6641 117.281C69.3932 117.281 70.0182 117.443 70.5391 117.766C71.0599 118.089 71.4583 118.542 71.7344 119.125C72.0104 119.703 72.1484 120.38 72.1484 121.156V121.961H66.2344C66.25 122.966 66.5 123.732 66.9844 124.258C67.4688 124.784 68.151 125.047 69.0312 125.047C69.5729 125.047 70.0521 124.997 70.4688 124.898C70.8854 124.799 71.3177 124.654 71.7656 124.461V125.602C71.3333 125.794 70.9036 125.935 70.4766 126.023C70.0547 126.112 69.5547 126.156 68.9766 126.156C68.1536 126.156 67.4349 125.99 66.8203 125.656C66.2109 125.318 65.737 124.823 65.3984 124.172C65.0599 123.521 64.8906 122.724 64.8906 121.781C64.8906 120.859 65.0443 120.062 65.3516 119.391C65.6641 118.714 66.1016 118.193 66.6641 117.828C67.2318 117.464 67.8984 117.281 68.6641 117.281ZM68.6484 118.344C67.9557 118.344 67.4036 118.57 66.9922 119.023C66.5807 119.477 66.3359 120.109 66.2578 120.922H70.7891C70.7839 120.411 70.7031 119.964 70.5469 119.578C70.3958 119.188 70.1641 118.885 69.8516 118.672C69.5391 118.453 69.138 118.344 68.6484 118.344ZM77.5547 117.297C78.5755 117.297 79.3333 117.526 79.8281 117.984C80.3229 118.443 80.5703 119.174 80.5703 120.18V126H79.625L79.375 124.734H79.3125C79.0729 125.047 78.8229 125.31 78.5625 125.523C78.3021 125.732 78 125.891 77.6562 126C77.3177 126.104 76.901 126.156 76.4062 126.156C75.8854 126.156 75.4219 126.065 75.0156 125.883C74.6146 125.701 74.2969 125.424 74.0625 125.055C73.8333 124.685 73.7188 124.216 73.7188 123.648C73.7188 122.794 74.0573 122.138 74.7344 121.68C75.4115 121.221 76.4427 120.971 77.8281 120.93L79.3047 120.867V120.344C79.3047 119.604 79.1458 119.086 78.8281 118.789C78.5104 118.492 78.0625 118.344 77.4844 118.344C77.0365 118.344 76.6094 118.409 76.2031 118.539C75.7969 118.669 75.4115 118.823 75.0469 119L74.6484 118.016C75.0339 117.818 75.4766 117.648 75.9766 117.508C76.4766 117.367 77.0026 117.297 77.5547 117.297ZM79.2891 121.781L77.9844 121.836C76.9167 121.878 76.1641 122.052 75.7266 122.359C75.2891 122.667 75.0703 123.102 75.0703 123.664C75.0703 124.154 75.2188 124.516 75.5156 124.75C75.8125 124.984 76.2057 125.102 76.6953 125.102C77.4557 125.102 78.0781 124.891 78.5625 124.469C79.0469 124.047 79.2891 123.414 79.2891 122.57V121.781ZM88.7812 123.656C88.7812 124.203 88.6432 124.664 88.3672 125.039C88.0964 125.409 87.7057 125.688 87.1953 125.875C86.6901 126.062 86.0859 126.156 85.3828 126.156C84.7839 126.156 84.2656 126.109 83.8281 126.016C83.3906 125.922 83.0078 125.789 82.6797 125.617V124.422C83.0286 124.594 83.4453 124.75 83.9297 124.891C84.4141 125.031 84.9089 125.102 85.4141 125.102C86.1536 125.102 86.6901 124.982 87.0234 124.742C87.3568 124.503 87.5234 124.177 87.5234 123.766C87.5234 123.531 87.4557 123.326 87.3203 123.148C87.1901 122.966 86.9688 122.792 86.6562 122.625C86.3438 122.453 85.9115 122.266 85.3594 122.062C84.8125 121.854 84.3385 121.648 83.9375 121.445C83.5417 121.237 83.2344 120.984 83.0156 120.688C82.8021 120.391 82.6953 120.005 82.6953 119.531C82.6953 118.807 82.987 118.253 83.5703 117.867C84.1589 117.477 84.9297 117.281 85.8828 117.281C86.3984 117.281 86.8802 117.333 87.3281 117.438C87.7812 117.536 88.2031 117.672 88.5938 117.844L88.1562 118.883C87.8021 118.732 87.4245 118.604 87.0234 118.5C86.6224 118.396 86.2135 118.344 85.7969 118.344C85.1979 118.344 84.737 118.443 84.4141 118.641C84.0964 118.839 83.9375 119.109 83.9375 119.453C83.9375 119.719 84.0104 119.938 84.1562 120.109C84.3073 120.281 84.5469 120.443 84.875 120.594C85.2031 120.745 85.6354 120.922 86.1719 121.125C86.7083 121.323 87.1719 121.529 87.5625 121.742C87.9531 121.951 88.2526 122.206 88.4609 122.508C88.6745 122.805 88.7812 123.188 88.7812 123.656ZM92.3516 124.141L92.4531 124.32C92.3594 124.701 92.2396 125.107 92.0938 125.539C91.9531 125.971 91.7969 126.404 91.625 126.836C91.4583 127.273 91.2891 127.682 91.1172 128.062H90.1484C90.2578 127.646 90.3646 127.206 90.4688 126.742C90.5729 126.284 90.6667 125.831 90.75 125.383C90.8385 124.93 90.9089 124.516 90.9609 124.141H92.3516ZM102.367 117.297C103.388 117.297 104.146 117.526 104.641 117.984C105.135 118.443 105.383 119.174 105.383 120.18V126H104.438L104.188 124.734H104.125C103.885 125.047 103.635 125.31 103.375 125.523C103.115 125.732 102.812 125.891 102.469 126C102.13 126.104 101.714 126.156 101.219 126.156C100.698 126.156 100.234 126.065 99.8281 125.883C99.4271 125.701 99.1094 125.424 98.875 125.055C98.6458 124.685 98.5312 124.216 98.5312 123.648C98.5312 122.794 98.8698 122.138 99.5469 121.68C100.224 121.221 101.255 120.971 102.641 120.93L104.117 120.867V120.344C104.117 119.604 103.958 119.086 103.641 118.789C103.323 118.492 102.875 118.344 102.297 118.344C101.849 118.344 101.422 118.409 101.016 118.539C100.609 118.669 100.224 118.823 99.8594 119L99.4609 118.016C99.8464 117.818 100.289 117.648 100.789 117.508C101.289 117.367 101.815 117.297 102.367 117.297ZM104.102 121.781L102.797 121.836C101.729 121.878 100.977 122.052 100.539 122.359C100.102 122.667 99.8828 123.102 99.8828 123.664C99.8828 124.154 100.031 124.516 100.328 124.75C100.625 124.984 101.018 125.102 101.508 125.102C102.268 125.102 102.891 124.891 103.375 124.469C103.859 124.047 104.102 123.414 104.102 122.57V121.781ZM112.109 117.281C113.125 117.281 113.893 117.531 114.414 118.031C114.935 118.526 115.195 119.323 115.195 120.422V126H113.914V120.508C113.914 119.794 113.75 119.26 113.422 118.906C113.099 118.552 112.602 118.375 111.93 118.375C110.982 118.375 110.315 118.643 109.93 119.18C109.544 119.716 109.352 120.495 109.352 121.516V126H108.055V117.438H109.102L109.297 118.672H109.367C109.549 118.37 109.781 118.117 110.062 117.914C110.344 117.706 110.659 117.549 111.008 117.445C111.357 117.336 111.724 117.281 112.109 117.281ZM120.914 126.156C119.831 126.156 118.971 125.786 118.336 125.047C117.706 124.307 117.391 123.208 117.391 121.75C117.391 120.276 117.714 119.164 118.359 118.414C119.005 117.659 119.865 117.281 120.938 117.281C121.391 117.281 121.786 117.341 122.125 117.461C122.464 117.581 122.755 117.742 123 117.945C123.245 118.143 123.451 118.37 123.617 118.625H123.711C123.69 118.464 123.669 118.242 123.648 117.961C123.628 117.68 123.617 117.451 123.617 117.273V113.844H124.914V126H123.867L123.672 124.781H123.617C123.456 125.036 123.25 125.268 123 125.477C122.755 125.685 122.461 125.852 122.117 125.977C121.779 126.096 121.378 126.156 120.914 126.156ZM121.117 125.078C122.034 125.078 122.682 124.818 123.062 124.297C123.443 123.776 123.633 123.003 123.633 121.977V121.742C123.633 120.654 123.451 119.818 123.086 119.234C122.727 118.651 122.07 118.359 121.117 118.359C120.32 118.359 119.724 118.667 119.328 119.281C118.932 119.891 118.734 120.724 118.734 121.781C118.734 122.833 118.93 123.646 119.32 124.219C119.716 124.792 120.315 125.078 121.117 125.078ZM135.875 117.281C136.891 117.281 137.659 117.531 138.18 118.031C138.701 118.526 138.961 119.323 138.961 120.422V126H137.68V120.508C137.68 119.794 137.516 119.26 137.188 118.906C136.865 118.552 136.367 118.375 135.695 118.375C134.747 118.375 134.081 118.643 133.695 119.18C133.31 119.716 133.117 120.495 133.117 121.516V126H131.82V117.438H132.867L133.062 118.672H133.133C133.315 118.37 133.547 118.117 133.828 117.914C134.109 117.706 134.424 117.549 134.773 117.445C135.122 117.336 135.49 117.281 135.875 117.281ZM144.93 117.281C145.659 117.281 146.284 117.443 146.805 117.766C147.326 118.089 147.724 118.542 148 119.125C148.276 119.703 148.414 120.38 148.414 121.156V121.961H142.5C142.516 122.966 142.766 123.732 143.25 124.258C143.734 124.784 144.417 125.047 145.297 125.047C145.839 125.047 146.318 124.997 146.734 124.898C147.151 124.799 147.583 124.654 148.031 124.461V125.602C147.599 125.794 147.169 125.935 146.742 126.023C146.32 126.112 145.82 126.156 145.242 126.156C144.419 126.156 143.701 125.99 143.086 125.656C142.477 125.318 142.003 124.823 141.664 124.172C141.326 123.521 141.156 122.724 141.156 121.781C141.156 120.859 141.31 120.062 141.617 119.391C141.93 118.714 142.367 118.193 142.93 117.828C143.497 117.464 144.164 117.281 144.93 117.281ZM144.914 118.344C144.221 118.344 143.669 118.57 143.258 119.023C142.846 119.477 142.602 120.109 142.523 120.922H147.055C147.049 120.411 146.969 119.964 146.812 119.578C146.661 119.188 146.43 118.885 146.117 118.672C145.805 118.453 145.404 118.344 144.914 118.344ZM157.586 125.984L156.062 121C155.995 120.786 155.93 120.578 155.867 120.375C155.81 120.167 155.755 119.969 155.703 119.781C155.656 119.589 155.612 119.411 155.57 119.25C155.534 119.083 155.503 118.94 155.477 118.82H155.422C155.401 118.94 155.372 119.083 155.336 119.25C155.299 119.411 155.255 119.589 155.203 119.781C155.156 119.974 155.104 120.177 155.047 120.391C154.99 120.599 154.924 120.81 154.852 121.023L153.258 125.984H151.797L149.438 117.422H150.781L152.016 122.148C152.099 122.461 152.177 122.771 152.25 123.078C152.328 123.38 152.393 123.667 152.445 123.938C152.503 124.203 152.544 124.435 152.57 124.633H152.633C152.664 124.503 152.698 124.346 152.734 124.164C152.776 123.982 152.82 123.789 152.867 123.586C152.919 123.378 152.974 123.172 153.031 122.969C153.089 122.76 153.146 122.565 153.203 122.383L154.781 117.422H156.18L157.703 122.375C157.781 122.625 157.857 122.885 157.93 123.156C158.008 123.427 158.078 123.69 158.141 123.945C158.203 124.195 158.247 124.419 158.273 124.617H158.336C158.357 124.44 158.396 124.221 158.453 123.961C158.51 123.701 158.576 123.414 158.648 123.102C158.727 122.789 158.807 122.471 158.891 122.148L160.141 117.422H161.461L159.094 125.984H157.586ZM168.562 123.656C168.562 124.203 168.424 124.664 168.148 125.039C167.878 125.409 167.487 125.688 166.977 125.875C166.471 126.062 165.867 126.156 165.164 126.156C164.565 126.156 164.047 126.109 163.609 126.016C163.172 125.922 162.789 125.789 162.461 125.617V124.422C162.81 124.594 163.227 124.75 163.711 124.891C164.195 125.031 164.69 125.102 165.195 125.102C165.935 125.102 166.471 124.982 166.805 124.742C167.138 124.503 167.305 124.177 167.305 123.766C167.305 123.531 167.237 123.326 167.102 123.148C166.971 122.966 166.75 122.792 166.438 122.625C166.125 122.453 165.693 122.266 165.141 122.062C164.594 121.854 164.12 121.648 163.719 121.445C163.323 121.237 163.016 120.984 162.797 120.688C162.583 120.391 162.477 120.005 162.477 119.531C162.477 118.807 162.768 118.253 163.352 117.867C163.94 117.477 164.711 117.281 165.664 117.281C166.18 117.281 166.661 117.333 167.109 117.438C167.562 117.536 167.984 117.672 168.375 117.844L167.938 118.883C167.583 118.732 167.206 118.604 166.805 118.5C166.404 118.396 165.995 118.344 165.578 118.344C164.979 118.344 164.518 118.443 164.195 118.641C163.878 118.839 163.719 119.109 163.719 119.453C163.719 119.719 163.792 119.938 163.938 120.109C164.089 120.281 164.328 120.443 164.656 120.594C164.984 120.745 165.417 120.922 165.953 121.125C166.49 121.323 166.953 121.529 167.344 121.742C167.734 121.951 168.034 122.206 168.242 122.508C168.456 122.805 168.562 123.188 168.562 123.656ZM176.102 117.438V126H174.805V117.438H176.102ZM175.469 114.234C175.682 114.234 175.865 114.305 176.016 114.445C176.172 114.581 176.25 114.794 176.25 115.086C176.25 115.372 176.172 115.586 176.016 115.727C175.865 115.867 175.682 115.938 175.469 115.938C175.245 115.938 175.057 115.867 174.906 115.727C174.76 115.586 174.688 115.372 174.688 115.086C174.688 114.794 174.76 114.581 174.906 114.445C175.057 114.305 175.245 114.234 175.469 114.234ZM182.906 117.281C183.922 117.281 184.69 117.531 185.211 118.031C185.732 118.526 185.992 119.323 185.992 120.422V126H184.711V120.508C184.711 119.794 184.547 119.26 184.219 118.906C183.896 118.552 183.398 118.375 182.727 118.375C181.779 118.375 181.112 118.643 180.727 119.18C180.341 119.716 180.148 120.495 180.148 121.516V126H178.852V117.438H179.898L180.094 118.672H180.164C180.346 118.37 180.578 118.117 180.859 117.914C181.141 117.706 181.456 117.549 181.805 117.445C182.154 117.336 182.521 117.281 182.906 117.281ZM191.469 117.438H192.859L194.75 122.406C194.859 122.698 194.961 122.979 195.055 123.25C195.148 123.516 195.232 123.771 195.305 124.016C195.378 124.26 195.435 124.497 195.477 124.727H195.531C195.604 124.466 195.708 124.125 195.844 123.703C195.979 123.276 196.125 122.841 196.281 122.398L198.07 117.438H199.469L195.742 127.258C195.544 127.784 195.312 128.242 195.047 128.633C194.786 129.023 194.469 129.323 194.094 129.531C193.719 129.745 193.266 129.852 192.734 129.852C192.49 129.852 192.273 129.836 192.086 129.805C191.898 129.779 191.737 129.747 191.602 129.711V128.672C191.716 128.698 191.854 128.721 192.016 128.742C192.182 128.763 192.354 128.773 192.531 128.773C192.854 128.773 193.133 128.711 193.367 128.586C193.607 128.466 193.812 128.289 193.984 128.055C194.156 127.82 194.305 127.542 194.43 127.219L194.898 126.016L191.469 117.438ZM208.219 121.703C208.219 122.406 208.128 123.034 207.945 123.586C207.763 124.138 207.5 124.604 207.156 124.984C206.812 125.365 206.396 125.656 205.906 125.859C205.422 126.057 204.872 126.156 204.258 126.156C203.685 126.156 203.159 126.057 202.68 125.859C202.206 125.656 201.794 125.365 201.445 124.984C201.102 124.604 200.833 124.138 200.641 123.586C200.453 123.034 200.359 122.406 200.359 121.703C200.359 120.766 200.518 119.969 200.836 119.312C201.154 118.651 201.607 118.148 202.195 117.805C202.789 117.456 203.495 117.281 204.312 117.281C205.094 117.281 205.776 117.456 206.359 117.805C206.948 118.154 207.404 118.659 207.727 119.32C208.055 119.977 208.219 120.771 208.219 121.703ZM201.703 121.703C201.703 122.391 201.794 122.987 201.977 123.492C202.159 123.997 202.44 124.388 202.82 124.664C203.201 124.94 203.69 125.078 204.289 125.078C204.883 125.078 205.37 124.94 205.75 124.664C206.135 124.388 206.419 123.997 206.602 123.492C206.784 122.987 206.875 122.391 206.875 121.703C206.875 121.021 206.784 120.432 206.602 119.938C206.419 119.438 206.138 119.052 205.758 118.781C205.378 118.51 204.885 118.375 204.281 118.375C203.391 118.375 202.737 118.669 202.32 119.258C201.909 119.846 201.703 120.661 201.703 121.703ZM217.531 117.438V126H216.469L216.281 124.797H216.211C216.034 125.094 215.805 125.344 215.523 125.547C215.242 125.75 214.924 125.901 214.57 126C214.221 126.104 213.849 126.156 213.453 126.156C212.776 126.156 212.208 126.047 211.75 125.828C211.292 125.609 210.945 125.271 210.711 124.812C210.482 124.354 210.367 123.766 210.367 123.047V117.438H211.68V122.953C211.68 123.667 211.841 124.201 212.164 124.555C212.487 124.904 212.979 125.078 213.641 125.078C214.276 125.078 214.781 124.958 215.156 124.719C215.536 124.479 215.81 124.128 215.977 123.664C216.143 123.195 216.227 122.622 216.227 121.945V117.438H217.531ZM224.164 117.281C224.336 117.281 224.516 117.292 224.703 117.312C224.891 117.328 225.057 117.352 225.203 117.383L225.039 118.586C224.898 118.549 224.742 118.521 224.57 118.5C224.398 118.479 224.237 118.469 224.086 118.469C223.742 118.469 223.417 118.539 223.109 118.68C222.807 118.815 222.542 119.013 222.312 119.273C222.083 119.529 221.904 119.839 221.773 120.203C221.643 120.562 221.578 120.964 221.578 121.406V126H220.273V117.438H221.352L221.492 119.016H221.547C221.724 118.698 221.938 118.409 222.188 118.148C222.438 117.883 222.727 117.672 223.055 117.516C223.388 117.359 223.758 117.281 224.164 117.281ZM232.273 117.438V126H230.977V117.438H232.273ZM231.641 114.234C231.854 114.234 232.036 114.305 232.188 114.445C232.344 114.581 232.422 114.794 232.422 115.086C232.422 115.372 232.344 115.586 232.188 115.727C232.036 115.867 231.854 115.938 231.641 115.938C231.417 115.938 231.229 115.867 231.078 115.727C230.932 115.586 230.859 115.372 230.859 115.086C230.859 114.794 230.932 114.581 231.078 114.445C231.229 114.305 231.417 114.234 231.641 114.234ZM239.078 117.281C240.094 117.281 240.862 117.531 241.383 118.031C241.904 118.526 242.164 119.323 242.164 120.422V126H240.883V120.508C240.883 119.794 240.719 119.26 240.391 118.906C240.068 118.552 239.57 118.375 238.898 118.375C237.951 118.375 237.284 118.643 236.898 119.18C236.513 119.716 236.32 120.495 236.32 121.516V126H235.023V117.438H236.07L236.266 118.672H236.336C236.518 118.37 236.75 118.117 237.031 117.914C237.312 117.706 237.628 117.549 237.977 117.445C238.326 117.336 238.693 117.281 239.078 117.281ZM246.133 113.844V116.883C246.133 117.232 246.122 117.57 246.102 117.898C246.086 118.227 246.073 118.482 246.062 118.664H246.133C246.367 118.279 246.706 117.953 247.148 117.688C247.591 117.422 248.156 117.289 248.844 117.289C249.917 117.289 250.771 117.661 251.406 118.406C252.047 119.146 252.367 120.247 252.367 121.711C252.367 122.674 252.221 123.487 251.93 124.148C251.638 124.81 251.227 125.31 250.695 125.648C250.164 125.987 249.536 126.156 248.812 126.156C248.135 126.156 247.578 126.031 247.141 125.781C246.708 125.526 246.375 125.216 246.141 124.852H246.039L245.773 126H244.836V113.844H246.133ZM248.633 118.375C248.013 118.375 247.521 118.497 247.156 118.742C246.792 118.982 246.529 119.346 246.367 119.836C246.211 120.32 246.133 120.935 246.133 121.68V121.75C246.133 122.828 246.312 123.654 246.672 124.227C247.031 124.794 247.685 125.078 248.633 125.078C249.43 125.078 250.026 124.786 250.422 124.203C250.823 123.62 251.023 122.786 251.023 121.703C251.023 120.599 250.826 119.768 250.43 119.211C250.039 118.654 249.44 118.375 248.633 118.375ZM262.016 121.703C262.016 122.406 261.924 123.034 261.742 123.586C261.56 124.138 261.297 124.604 260.953 124.984C260.609 125.365 260.193 125.656 259.703 125.859C259.219 126.057 258.669 126.156 258.055 126.156C257.482 126.156 256.956 126.057 256.477 125.859C256.003 125.656 255.591 125.365 255.242 124.984C254.898 124.604 254.63 124.138 254.438 123.586C254.25 123.034 254.156 122.406 254.156 121.703C254.156 120.766 254.315 119.969 254.633 119.312C254.951 118.651 255.404 118.148 255.992 117.805C256.586 117.456 257.292 117.281 258.109 117.281C258.891 117.281 259.573 117.456 260.156 117.805C260.745 118.154 261.201 118.659 261.523 119.32C261.852 119.977 262.016 120.771 262.016 121.703ZM255.5 121.703C255.5 122.391 255.591 122.987 255.773 123.492C255.956 123.997 256.237 124.388 256.617 124.664C256.997 124.94 257.487 125.078 258.086 125.078C258.68 125.078 259.167 124.94 259.547 124.664C259.932 124.388 260.216 123.997 260.398 123.492C260.581 122.987 260.672 122.391 260.672 121.703C260.672 121.021 260.581 120.432 260.398 119.938C260.216 119.438 259.935 119.052 259.555 118.781C259.174 118.51 258.682 118.375 258.078 118.375C257.188 118.375 256.534 118.669 256.117 119.258C255.706 119.846 255.5 120.661 255.5 121.703ZM266.297 121.617L263.336 117.438H264.82L267.078 120.734L269.328 117.438H270.797L267.836 121.617L270.961 126H269.477L267.078 122.508L264.664 126H263.195L266.297 121.617Z" fill="black"/>
<g filter="url(#filter1_d_148_12)">
<rect x="24" y="20" width="307" height="50" fill="white"/>
</g>
<g filter="url(#filter2_d_148_12)">
<rect x="24" y="20" width="307" height="50" fill="white"/>
</g>
<path d="M55.9023 52H47.9531V37.7227H55.9023V39.1875H49.6133V43.8066H55.541V45.252H49.6133V50.5352H55.9023V52ZM65.3457 52L60.5508 39.3633H60.4727C60.4987 39.6302 60.5215 39.9557 60.541 40.3398C60.5605 40.724 60.5768 41.1439 60.5898 41.5996C60.6029 42.0488 60.6094 42.5078 60.6094 42.9766V52H59.0664V37.7227H61.5273L66.0488 49.5977H66.1172L70.707 37.7227H73.1484V52H71.5078V42.8594C71.5078 42.4362 71.5143 42.013 71.5273 41.5898C71.5404 41.1602 71.5566 40.7565 71.5762 40.3789C71.5957 39.9948 71.6152 39.6628 71.6348 39.3828H71.5566L66.7031 52H65.3457ZM86.0098 52L84.252 47.4688H78.5293L76.7812 52H75.1016L80.6875 37.6641H82.1816L87.7285 52H86.0098ZM83.7539 45.9941L82.084 41.4922C82.0449 41.375 81.9798 41.1829 81.8887 40.916C81.804 40.6491 81.7161 40.3724 81.625 40.0859C81.5339 39.7995 81.459 39.5684 81.4004 39.3926C81.3353 39.6595 81.2637 39.9264 81.1855 40.1934C81.1139 40.4538 81.0423 40.6979 80.9707 40.9258C80.8991 41.1471 80.8372 41.3359 80.7852 41.4922L79.0859 45.9941H83.7539ZM89.7109 52V37.7227H91.3711V52H89.7109ZM95.2969 52V37.7227H96.957V50.5156H103.295V52H95.2969ZM122.104 52H120.189L112.406 40.0078H112.328C112.348 40.3268 112.37 40.6914 112.396 41.1016C112.423 41.5052 112.442 41.9382 112.455 42.4004C112.475 42.8561 112.484 43.3216 112.484 43.7969V52H110.941V37.7227H112.846L120.6 49.6758H120.668C120.655 49.4479 120.639 49.1257 120.619 48.709C120.6 48.2858 120.58 47.8333 120.561 47.3516C120.548 46.8633 120.541 46.4108 120.541 45.9941V37.7227H122.104V52ZM133.949 52H126V37.7227H133.949V39.1875H127.66V43.8066H133.588V45.252H127.66V50.5352H133.949V52ZM153.334 37.7227L149.516 52H147.846L145.014 42.3906C144.929 42.1172 144.848 41.8438 144.77 41.5703C144.698 41.2904 144.63 41.0267 144.564 40.7793C144.499 40.5254 144.444 40.304 144.398 40.1152C144.359 39.9199 144.33 39.7734 144.311 39.6758C144.298 39.7734 144.271 39.9167 144.232 40.1055C144.2 40.2943 144.154 40.5124 144.096 40.7598C144.044 41.0072 143.979 41.2708 143.9 41.5508C143.829 41.8307 143.751 42.1139 143.666 42.4004L140.912 52H139.242L135.453 37.7227H137.182L139.477 46.6777C139.555 46.9772 139.626 47.2734 139.691 47.5664C139.763 47.8529 139.825 48.1328 139.877 48.4062C139.936 48.6797 139.988 48.9466 140.033 49.207C140.079 49.4674 140.121 49.7214 140.16 49.9688C140.193 49.7148 140.235 49.4512 140.287 49.1777C140.339 48.8978 140.395 48.6146 140.453 48.3281C140.518 48.0417 140.587 47.752 140.658 47.459C140.736 47.166 140.818 46.873 140.902 46.5801L143.471 37.7227H145.18L147.855 46.6484C147.947 46.9544 148.031 47.2572 148.109 47.5566C148.188 47.8561 148.256 48.1491 148.314 48.4355C148.38 48.7155 148.435 48.9857 148.48 49.2461C148.533 49.5 148.578 49.7409 148.617 49.9688C148.663 49.6497 148.718 49.3145 148.783 48.9629C148.848 48.6113 148.923 48.2435 149.008 47.8594C149.099 47.4753 149.197 47.0781 149.301 46.668L151.596 37.7227H153.334ZM163.646 48.2012C163.646 49.0475 163.435 49.7702 163.012 50.3691C162.595 50.9616 162.009 51.4141 161.254 51.7266C160.499 52.0391 159.61 52.1953 158.588 52.1953C158.048 52.1953 157.536 52.1693 157.055 52.1172C156.573 52.0651 156.13 51.9902 155.727 51.8926C155.323 51.7949 154.968 51.6745 154.662 51.5312V49.9395C155.15 50.1413 155.746 50.3301 156.449 50.5059C157.152 50.6751 157.888 50.7598 158.656 50.7598C159.372 50.7598 159.978 50.6654 160.473 50.4766C160.967 50.2812 161.342 50.0046 161.596 49.6465C161.856 49.2819 161.986 48.8457 161.986 48.3379C161.986 47.8496 161.879 47.4427 161.664 47.1172C161.449 46.7852 161.091 46.4857 160.59 46.2188C160.095 45.9453 159.418 45.6556 158.559 45.3496C157.953 45.1348 157.419 44.9004 156.957 44.6465C156.495 44.3861 156.107 44.0931 155.795 43.7676C155.482 43.4421 155.245 43.0645 155.082 42.6348C154.926 42.2051 154.848 41.7135 154.848 41.1602C154.848 40.3984 155.04 39.7474 155.424 39.207C155.814 38.6602 156.352 38.2435 157.035 37.957C157.725 37.6641 158.516 37.5176 159.408 37.5176C160.17 37.5176 160.873 37.5892 161.518 37.7324C162.169 37.8757 162.764 38.0677 163.305 38.3086L162.787 39.7344C162.273 39.5195 161.726 39.3405 161.146 39.1973C160.574 39.054 159.981 38.9824 159.369 38.9824C158.757 38.9824 158.24 39.0736 157.816 39.2559C157.4 39.4316 157.081 39.6823 156.859 40.0078C156.638 40.3333 156.527 40.7207 156.527 41.1699C156.527 41.6712 156.632 42.0879 156.84 42.4199C157.055 42.752 157.393 43.0482 157.855 43.3086C158.324 43.5625 158.943 43.8294 159.711 44.1094C160.551 44.4154 161.264 44.7409 161.85 45.0859C162.436 45.4245 162.882 45.8411 163.188 46.3359C163.493 46.8242 163.646 47.446 163.646 48.2012ZM166.566 52V37.7227H168.227V50.5156H174.564V52H166.566ZM184.965 52H177.016V37.7227H184.965V39.1875H178.676V43.8066H184.604V45.252H178.676V50.5352H184.965V52ZM192.514 52H190.844V39.1875H186.352V37.7227H196.986V39.1875H192.514V52ZM203.529 52H201.859V39.1875H197.367V37.7227H208.002V39.1875H203.529V52ZM218.109 52H210.16V37.7227H218.109V39.1875H211.82V43.8066H217.748V45.252H211.82V50.5352H218.109V52ZM225.131 37.7227C226.303 37.7227 227.27 37.8691 228.031 38.1621C228.799 38.4486 229.372 38.888 229.75 39.4805C230.128 40.0729 230.316 40.8281 230.316 41.7461C230.316 42.5013 230.18 43.1328 229.906 43.6406C229.633 44.1419 229.275 44.5488 228.832 44.8613C228.389 45.1738 227.917 45.4147 227.416 45.584L231.332 52H229.398L225.902 46.043H222.934V52H221.273V37.7227H225.131ZM225.033 39.1582H222.934V44.6367H225.199C226.365 44.6367 227.221 44.3991 227.768 43.9238C228.321 43.4486 228.598 42.7487 228.598 41.8242C228.598 40.8542 228.305 40.1673 227.719 39.7637C227.139 39.36 226.244 39.1582 225.033 39.1582Z" fill="#777777"/>
<rect x="46.5" y="147.5" width="163" height="31" fill="white" stroke="#C8C3C3"/>
<path d="M63.9219 169H57.5625V157.578H63.9219V158.75H58.8906V162.445H63.6328V163.602H58.8906V167.828H63.9219V169ZM75.5547 160.281C76.4974 160.281 77.2083 160.529 77.6875 161.023C78.1667 161.513 78.4062 162.302 78.4062 163.391V169H77.125V163.453C77.125 162.76 76.974 162.242 76.6719 161.898C76.375 161.549 75.9323 161.375 75.3438 161.375C74.5156 161.375 73.9141 161.615 73.5391 162.094C73.1641 162.573 72.9766 163.279 72.9766 164.211V169H71.6875V163.453C71.6875 162.99 71.6198 162.604 71.4844 162.297C71.3542 161.99 71.1562 161.76 70.8906 161.609C70.6302 161.453 70.2995 161.375 69.8984 161.375C69.3307 161.375 68.875 161.492 68.5312 161.727C68.1875 161.961 67.9375 162.31 67.7812 162.773C67.6302 163.232 67.5547 163.797 67.5547 164.469V169H66.2578V160.438H67.3047L67.5 161.648H67.5703C67.7422 161.352 67.9583 161.102 68.2188 160.898C68.4792 160.695 68.7708 160.542 69.0938 160.438C69.4167 160.333 69.7604 160.281 70.125 160.281C70.776 160.281 71.3203 160.404 71.7578 160.648C72.2005 160.888 72.5208 161.255 72.7188 161.75H72.7891C73.0703 161.255 73.4557 160.888 73.9453 160.648C74.4349 160.404 74.9714 160.281 75.5547 160.281ZM84.2734 160.297C85.2943 160.297 86.0521 160.526 86.5469 160.984C87.0417 161.443 87.2891 162.174 87.2891 163.18V169H86.3438L86.0938 167.734H86.0312C85.7917 168.047 85.5417 168.31 85.2812 168.523C85.0208 168.732 84.7188 168.891 84.375 169C84.0365 169.104 83.6198 169.156 83.125 169.156C82.6042 169.156 82.1406 169.065 81.7344 168.883C81.3333 168.701 81.0156 168.424 80.7812 168.055C80.5521 167.685 80.4375 167.216 80.4375 166.648C80.4375 165.794 80.776 165.138 81.4531 164.68C82.1302 164.221 83.1615 163.971 84.5469 163.93L86.0234 163.867V163.344C86.0234 162.604 85.8646 162.086 85.5469 161.789C85.2292 161.492 84.7812 161.344 84.2031 161.344C83.7552 161.344 83.3281 161.409 82.9219 161.539C82.5156 161.669 82.1302 161.823 81.7656 162L81.3672 161.016C81.7526 160.818 82.1953 160.648 82.6953 160.508C83.1953 160.367 83.7214 160.297 84.2734 160.297ZM86.0078 164.781L84.7031 164.836C83.6354 164.878 82.8828 165.052 82.4453 165.359C82.0078 165.667 81.7891 166.102 81.7891 166.664C81.7891 167.154 81.9375 167.516 82.2344 167.75C82.5312 167.984 82.9245 168.102 83.4141 168.102C84.1745 168.102 84.7969 167.891 85.2812 167.469C85.7656 167.047 86.0078 166.414 86.0078 165.57V164.781ZM91.2578 160.438V169H89.9609V160.438H91.2578ZM90.625 157.234C90.8385 157.234 91.0208 157.305 91.1719 157.445C91.3281 157.581 91.4062 157.794 91.4062 158.086C91.4062 158.372 91.3281 158.586 91.1719 158.727C91.0208 158.867 90.8385 158.938 90.625 158.938C90.401 158.938 90.2135 158.867 90.0625 158.727C89.9167 158.586 89.8438 158.372 89.8438 158.086C89.8438 157.794 89.9167 157.581 90.0625 157.445C90.2135 157.305 90.401 157.234 90.625 157.234ZM95.3125 169H94.0078V156.844H95.3125V169ZM105.414 160.297C106.435 160.297 107.193 160.526 107.688 160.984C108.182 161.443 108.43 162.174 108.43 163.18V169H107.484L107.234 167.734H107.172C106.932 168.047 106.682 168.31 106.422 168.523C106.161 168.732 105.859 168.891 105.516 169C105.177 169.104 104.76 169.156 104.266 169.156C103.745 169.156 103.281 169.065 102.875 168.883C102.474 168.701 102.156 168.424 101.922 168.055C101.693 167.685 101.578 167.216 101.578 166.648C101.578 165.794 101.917 165.138 102.594 164.68C103.271 164.221 104.302 163.971 105.688 163.93L107.164 163.867V163.344C107.164 162.604 107.005 162.086 106.688 161.789C106.37 161.492 105.922 161.344 105.344 161.344C104.896 161.344 104.469 161.409 104.062 161.539C103.656 161.669 103.271 161.823 102.906 162L102.508 161.016C102.893 160.818 103.336 160.648 103.836 160.508C104.336 160.367 104.862 160.297 105.414 160.297ZM107.148 164.781L105.844 164.836C104.776 164.878 104.023 165.052 103.586 165.359C103.148 165.667 102.93 166.102 102.93 166.664C102.93 167.154 103.078 167.516 103.375 167.75C103.672 167.984 104.065 168.102 104.555 168.102C105.315 168.102 105.938 167.891 106.422 167.469C106.906 167.047 107.148 166.414 107.148 165.57V164.781ZM114.148 169.156C113.065 169.156 112.206 168.786 111.57 168.047C110.94 167.307 110.625 166.208 110.625 164.75C110.625 163.276 110.948 162.164 111.594 161.414C112.24 160.659 113.099 160.281 114.172 160.281C114.625 160.281 115.021 160.341 115.359 160.461C115.698 160.581 115.99 160.742 116.234 160.945C116.479 161.143 116.685 161.37 116.852 161.625H116.945C116.924 161.464 116.904 161.242 116.883 160.961C116.862 160.68 116.852 160.451 116.852 160.273V156.844H118.148V169H117.102L116.906 167.781H116.852C116.69 168.036 116.484 168.268 116.234 168.477C115.99 168.685 115.695 168.852 115.352 168.977C115.013 169.096 114.612 169.156 114.148 169.156ZM114.352 168.078C115.268 168.078 115.917 167.818 116.297 167.297C116.677 166.776 116.867 166.003 116.867 164.977V164.742C116.867 163.654 116.685 162.818 116.32 162.234C115.961 161.651 115.305 161.359 114.352 161.359C113.555 161.359 112.958 161.667 112.562 162.281C112.167 162.891 111.969 163.724 111.969 164.781C111.969 165.833 112.164 166.646 112.555 167.219C112.951 167.792 113.549 168.078 114.352 168.078ZM124.789 160.281C124.961 160.281 125.141 160.292 125.328 160.312C125.516 160.328 125.682 160.352 125.828 160.383L125.664 161.586C125.523 161.549 125.367 161.521 125.195 161.5C125.023 161.479 124.862 161.469 124.711 161.469C124.367 161.469 124.042 161.539 123.734 161.68C123.432 161.815 123.167 162.013 122.938 162.273C122.708 162.529 122.529 162.839 122.398 163.203C122.268 163.562 122.203 163.964 122.203 164.406V169H120.898V160.438H121.977L122.117 162.016H122.172C122.349 161.698 122.562 161.409 122.812 161.148C123.062 160.883 123.352 160.672 123.68 160.516C124.013 160.359 124.383 160.281 124.789 160.281ZM130.742 160.281C131.471 160.281 132.096 160.443 132.617 160.766C133.138 161.089 133.536 161.542 133.812 162.125C134.089 162.703 134.227 163.38 134.227 164.156V164.961H128.312C128.328 165.966 128.578 166.732 129.062 167.258C129.547 167.784 130.229 168.047 131.109 168.047C131.651 168.047 132.13 167.997 132.547 167.898C132.964 167.799 133.396 167.654 133.844 167.461V168.602C133.411 168.794 132.982 168.935 132.555 169.023C132.133 169.112 131.633 169.156 131.055 169.156C130.232 169.156 129.513 168.99 128.898 168.656C128.289 168.318 127.815 167.823 127.477 167.172C127.138 166.521 126.969 165.724 126.969 164.781C126.969 163.859 127.122 163.062 127.43 162.391C127.742 161.714 128.18 161.193 128.742 160.828C129.31 160.464 129.977 160.281 130.742 160.281ZM130.727 161.344C130.034 161.344 129.482 161.57 129.07 162.023C128.659 162.477 128.414 163.109 128.336 163.922H132.867C132.862 163.411 132.781 162.964 132.625 162.578C132.474 162.188 132.242 161.885 131.93 161.672C131.617 161.453 131.216 161.344 130.727 161.344ZM141.969 166.656C141.969 167.203 141.831 167.664 141.555 168.039C141.284 168.409 140.893 168.688 140.383 168.875C139.878 169.062 139.273 169.156 138.57 169.156C137.971 169.156 137.453 169.109 137.016 169.016C136.578 168.922 136.195 168.789 135.867 168.617V167.422C136.216 167.594 136.633 167.75 137.117 167.891C137.602 168.031 138.096 168.102 138.602 168.102C139.341 168.102 139.878 167.982 140.211 167.742C140.544 167.503 140.711 167.177 140.711 166.766C140.711 166.531 140.643 166.326 140.508 166.148C140.378 165.966 140.156 165.792 139.844 165.625C139.531 165.453 139.099 165.266 138.547 165.062C138 164.854 137.526 164.648 137.125 164.445C136.729 164.237 136.422 163.984 136.203 163.688C135.99 163.391 135.883 163.005 135.883 162.531C135.883 161.807 136.174 161.253 136.758 160.867C137.346 160.477 138.117 160.281 139.07 160.281C139.586 160.281 140.068 160.333 140.516 160.438C140.969 160.536 141.391 160.672 141.781 160.844L141.344 161.883C140.99 161.732 140.612 161.604 140.211 161.5C139.81 161.396 139.401 161.344 138.984 161.344C138.385 161.344 137.924 161.443 137.602 161.641C137.284 161.839 137.125 162.109 137.125 162.453C137.125 162.719 137.198 162.938 137.344 163.109C137.495 163.281 137.734 163.443 138.062 163.594C138.391 163.745 138.823 163.922 139.359 164.125C139.896 164.323 140.359 164.529 140.75 164.742C141.141 164.951 141.44 165.206 141.648 165.508C141.862 165.805 141.969 166.188 141.969 166.656ZM149.594 166.656C149.594 167.203 149.456 167.664 149.18 168.039C148.909 168.409 148.518 168.688 148.008 168.875C147.503 169.062 146.898 169.156 146.195 169.156C145.596 169.156 145.078 169.109 144.641 169.016C144.203 168.922 143.82 168.789 143.492 168.617V167.422C143.841 167.594 144.258 167.75 144.742 167.891C145.227 168.031 145.721 168.102 146.227 168.102C146.966 168.102 147.503 167.982 147.836 167.742C148.169 167.503 148.336 167.177 148.336 166.766C148.336 166.531 148.268 166.326 148.133 166.148C148.003 165.966 147.781 165.792 147.469 165.625C147.156 165.453 146.724 165.266 146.172 165.062C145.625 164.854 145.151 164.648 144.75 164.445C144.354 164.237 144.047 163.984 143.828 163.688C143.615 163.391 143.508 163.005 143.508 162.531C143.508 161.807 143.799 161.253 144.383 160.867C144.971 160.477 145.742 160.281 146.695 160.281C147.211 160.281 147.693 160.333 148.141 160.438C148.594 160.536 149.016 160.672 149.406 160.844L148.969 161.883C148.615 161.732 148.237 161.604 147.836 161.5C147.435 161.396 147.026 161.344 146.609 161.344C146.01 161.344 145.549 161.443 145.227 161.641C144.909 161.839 144.75 162.109 144.75 162.453C144.75 162.719 144.823 162.938 144.969 163.109C145.12 163.281 145.359 163.443 145.688 163.594C146.016 163.745 146.448 163.922 146.984 164.125C147.521 164.323 147.984 164.529 148.375 164.742C148.766 164.951 149.065 165.206 149.273 165.508C149.487 165.805 149.594 166.188 149.594 166.656Z" fill="#777777"/>
<rect x="221" y="147" width="88" height="32" fill="#EA0F0B"/>
<path d="M246.898 166.055C246.898 166.737 246.727 167.31 246.383 167.773C246.039 168.232 245.573 168.578 244.984 168.812C244.396 169.042 243.729 169.156 242.984 169.156C242.521 169.156 242.099 169.133 241.719 169.086C241.344 169.044 241.003 168.987 240.695 168.914C240.393 168.841 240.117 168.758 239.867 168.664V167.859C240.273 168.016 240.742 168.154 241.273 168.273C241.81 168.388 242.393 168.445 243.023 168.445C243.617 168.445 244.143 168.359 244.602 168.188C245.065 168.016 245.43 167.755 245.695 167.406C245.961 167.057 246.094 166.617 246.094 166.086C246.094 165.617 245.982 165.234 245.758 164.938C245.539 164.635 245.208 164.378 244.766 164.164C244.323 163.945 243.766 163.724 243.094 163.5C242.625 163.339 242.198 163.169 241.812 162.992C241.432 162.81 241.107 162.602 240.836 162.367C240.565 162.128 240.357 161.841 240.211 161.508C240.07 161.169 240 160.771 240 160.312C240 159.682 240.159 159.154 240.477 158.727C240.799 158.294 241.234 157.969 241.781 157.75C242.333 157.526 242.953 157.414 243.641 157.414C244.188 157.414 244.706 157.466 245.195 157.57C245.69 157.669 246.167 157.82 246.625 158.023L246.344 158.719C245.885 158.521 245.427 158.375 244.969 158.281C244.51 158.188 244.057 158.141 243.609 158.141C243.073 158.141 242.594 158.221 242.172 158.383C241.755 158.539 241.424 158.776 241.18 159.094C240.935 159.411 240.812 159.812 240.812 160.297C240.812 160.797 240.924 161.201 241.148 161.508C241.378 161.815 241.701 162.07 242.117 162.273C242.539 162.477 243.036 162.674 243.609 162.867C244.286 163.096 244.87 163.339 245.359 163.594C245.849 163.844 246.227 164.161 246.492 164.547C246.763 164.932 246.898 165.435 246.898 166.055ZM255.742 160.508V169H255.102L254.984 167.469H254.938C254.792 167.781 254.586 168.065 254.32 168.32C254.055 168.576 253.729 168.779 253.344 168.93C252.958 169.081 252.51 169.156 252 169.156C251.349 169.156 250.802 169.044 250.359 168.82C249.922 168.591 249.591 168.247 249.367 167.789C249.143 167.331 249.031 166.758 249.031 166.07V160.508H249.82V165.992C249.82 166.841 250.01 167.466 250.391 167.867C250.776 168.268 251.339 168.469 252.078 168.469C252.703 168.469 253.227 168.349 253.648 168.109C254.076 167.87 254.398 167.508 254.617 167.023C254.841 166.534 254.953 165.924 254.953 165.195V160.508H255.742ZM259.375 156.844V160.297C259.375 160.594 259.37 160.919 259.359 161.273C259.349 161.628 259.339 161.922 259.328 162.156H259.375C259.578 161.63 259.932 161.195 260.438 160.852C260.943 160.508 261.573 160.336 262.328 160.336C263.432 160.336 264.284 160.708 264.883 161.453C265.487 162.198 265.789 163.289 265.789 164.727C265.789 165.607 265.654 166.38 265.383 167.047C265.112 167.708 264.708 168.227 264.172 168.602C263.641 168.971 262.974 169.156 262.172 169.156C261.448 169.156 260.857 169.005 260.398 168.703C259.94 168.396 259.607 168.013 259.398 167.555H259.336L259.188 169H258.586V156.844H259.375ZM262.242 161.023C261.57 161.023 261.023 161.169 260.602 161.461C260.18 161.747 259.87 162.167 259.672 162.719C259.474 163.271 259.375 163.945 259.375 164.742V164.867C259.375 166.039 259.589 166.932 260.016 167.547C260.443 168.161 261.135 168.469 262.094 168.469C263.042 168.469 263.758 168.146 264.242 167.5C264.732 166.849 264.977 165.924 264.977 164.727C264.977 163.503 264.75 162.581 264.297 161.961C263.844 161.336 263.159 161.023 262.242 161.023ZM276.891 160.344C277.708 160.344 278.354 160.581 278.828 161.055C279.302 161.529 279.539 162.276 279.539 163.297V169H278.766V163.328C278.766 162.542 278.586 161.964 278.227 161.594C277.867 161.224 277.393 161.039 276.805 161.039C275.997 161.039 275.365 161.276 274.906 161.75C274.453 162.219 274.227 162.958 274.227 163.969V169H273.445V163.328C273.445 162.802 273.362 162.372 273.195 162.039C273.034 161.701 272.807 161.451 272.516 161.289C272.224 161.122 271.88 161.039 271.484 161.039C270.958 161.039 270.503 161.148 270.117 161.367C269.732 161.581 269.435 161.914 269.227 162.367C269.018 162.815 268.914 163.385 268.914 164.078V169H268.125V160.508H268.766L268.883 161.898H268.93C269.07 161.622 269.258 161.367 269.492 161.133C269.727 160.898 270.016 160.708 270.359 160.562C270.708 160.417 271.117 160.344 271.586 160.344C272.195 160.344 272.711 160.482 273.133 160.758C273.56 161.029 273.857 161.432 274.023 161.969H274.078C274.307 161.458 274.661 161.06 275.141 160.773C275.625 160.487 276.208 160.344 276.891 160.344ZM283.055 160.508V169H282.266V160.508H283.055ZM282.672 157.367C282.87 157.367 283.016 157.427 283.109 157.547C283.203 157.661 283.25 157.818 283.25 158.016C283.25 158.214 283.203 158.37 283.109 158.484C283.016 158.599 282.87 158.656 282.672 158.656C282.484 158.656 282.344 158.599 282.25 158.484C282.156 158.37 282.109 158.214 282.109 158.016C282.109 157.818 282.156 157.661 282.25 157.547C282.344 157.427 282.484 157.367 282.672 157.367ZM288.188 168.477C288.432 168.477 288.659 168.458 288.867 168.422C289.081 168.385 289.268 168.339 289.43 168.281V168.938C289.263 168.995 289.068 169.044 288.844 169.086C288.62 169.133 288.372 169.156 288.102 169.156C287.622 169.156 287.224 169.068 286.906 168.891C286.589 168.708 286.349 168.435 286.188 168.07C286.026 167.701 285.945 167.232 285.945 166.664V161.164H284.68V160.695L285.938 160.453L286.211 158.453H286.734V160.508H289.383V161.164H286.734V166.617C286.734 167.227 286.846 167.69 287.07 168.008C287.299 168.32 287.672 168.477 288.188 168.477Z" fill="white"/>
<defs>
<filter id="filter0_d_148_12" x="0" y="0" width="355" height="218" filterUnits="userSpaceOnUse" color-interpolation-filters="sRGB">
<feFlood flood-opacity="0" result="BackgroundImageFix"/>
<feColorMatrix in="SourceAlpha" type="matrix" values="0 0 0 0 0 0 0 0 0 0 0 0 0 0 0 0 0 0 127 0" result="hardAlpha"/>
<feOffset dy="4"/>
<feGaussianBlur stdDeviation="12"/>
<feComposite in2="hardAlpha" operator="out"/>
<feColorMatrix type="matrix" values="0 0 0 0 0.505882 0 0 0 0 0.529412 0 0 0 0 0.741176 0 0 0 0.15 0"/>
<feBlend mode="normal" in2="BackgroundImageFix" result="effect1_dropShadow_148_12"/>
<feBlend mode="normal" in="SourceGraphic" in2="effect1_dropShadow_148_12" result="shape"/>
</filter>
<filter id="filter1_d_148_12" x="0" y="0" width="355" height="98" filterUnits="userSpaceOnUse" color-interpolation-filters="sRGB">
<feFlood flood-opacity="0" result="BackgroundImageFix"/>
<feColorMatrix in="SourceAlpha" type="matrix" values="0 0 0 0 0 0 0 0 0 0 0 0 0 0 0 0 0 0 127 0" result="hardAlpha"/>
<feOffset dy="4"/>
<feGaussianBlur stdDeviation="12"/>
<feComposite in2="hardAlpha" operator="out"/>
<feColorMatrix type="matrix" values="0 0 0 0 0.505882 0 0 0 0 0.529412 0 0 0 0 0.741176 0 0 0 0.15 0"/>
<feBlend mode="normal" in2="BackgroundImageFix" result="effect1_dropShadow_148_12"/>
<feBlend mode="normal" in="SourceGraphic" in2="effect1_dropShadow_148_12" result="shape"/>
</filter>
<filter id="filter2_d_148_12" x="0" y="0" width="355" height="98" filterUnits="userSpaceOnUse" color-interpolation-filters="sRGB">
<feFlood flood-opacity="0" result="BackgroundImageFix"/>
<feColorMatrix in="SourceAlpha" type="matrix" values="0 0 0 0 0 0 0 0 0 0 0 0 0 0 0 0 0 0 127 0" result="hardAlpha"/>
<feOffset dy="4"/>
<feGaussianBlur stdDeviation="12"/>
<feComposite in2="hardAlpha" operator="out"/>
<feColorMatrix type="matrix" values="0 0 0 0 0.505882 0 0 0 0 0.529412 0 0 0 0 0.741176 0 0 0 0.15 0"/>
<feBlend mode="normal" in2="BackgroundImageFix" result="effect1_dropShadow_148_12"/>
<feBlend mode="normal" in="SourceGraphic" in2="effect1_dropShadow_148_12" result="shape"/>
</filter>
</defs>
</svg>
