<svg width="225" height="65" viewBox="0 0 225 65" fill="none" xmlns="http://www.w3.org/2000/svg">
<path d="M18.8203 51L10.5703 24.1172H10.3594C10.3906 24.7578 10.4375 25.7266 10.5 27.0234C10.5781 28.3047 10.6484 29.6719 10.7109 31.125C10.7734 32.5781 10.8047 33.8906 10.8047 35.0625V51H4.3125V16.7344H14.2031L22.3125 42.9375H22.4531L31.0547 16.7344H40.9453V51H34.1719V34.7812C34.1719 33.7031 34.1875 32.4609 34.2188 31.0547C34.2656 29.6484 34.3203 28.3125 34.3828 27.0469C34.4453 25.7656 34.4922 24.8047 34.5234 24.1641H34.3125L25.4766 51H18.8203ZM70.5703 51L68.0859 42.8438H55.5938L53.1094 51H45.2812L57.375 16.5938H66.2578L78.3984 51H70.5703ZM66.3516 36.75L63.8672 28.7812C63.7109 28.25 63.5 27.5703 63.2344 26.7422C62.9844 25.8984 62.7266 25.0469 62.4609 24.1875C62.2109 23.3125 62.0078 22.5547 61.8516 21.9141C61.6953 22.5547 61.4766 23.3516 61.1953 24.3047C60.9297 25.2422 60.6719 26.1328 60.4219 26.9766C60.1719 27.8203 59.9922 28.4219 59.8828 28.7812L57.4219 36.75H66.3516ZM95.7422 31.7578H109.336V49.5234C107.539 50.1172 105.672 50.5938 103.734 50.9531C101.797 51.2969 99.6016 51.4688 97.1484 51.4688C93.7422 51.4688 90.8516 50.7969 88.4766 49.4531C86.1016 48.1094 84.2969 46.125 83.0625 43.5C81.8281 40.875 81.2109 37.6484 81.2109 33.8203C81.2109 30.2266 81.8984 27.1172 83.2734 24.4922C84.6641 21.8672 86.6875 19.8359 89.3438 18.3984C92.0156 16.9609 95.2734 16.2422 99.1172 16.2422C100.93 16.2422 102.719 16.4375 104.484 16.8281C106.25 17.2188 107.852 17.7266 109.289 18.3516L106.875 24.1641C105.828 23.6328 104.633 23.1875 103.289 22.8281C101.945 22.4688 100.539 22.2891 99.0703 22.2891C96.9609 22.2891 95.125 22.7734 93.5625 23.7422C92.0156 24.7109 90.8125 26.0703 89.9531 27.8203C89.1094 29.5547 88.6875 31.6016 88.6875 33.9609C88.6875 36.1953 88.9922 38.1797 89.6016 39.9141C90.2109 41.6328 91.1719 42.9844 92.4844 43.9688C93.7969 44.9375 95.5078 45.4219 97.6172 45.4219C98.6484 45.4219 99.5156 45.375 100.219 45.2812C100.938 45.1719 101.609 45.0625 102.234 44.9531V37.8047H95.7422V31.7578Z" fill="#EA0F0B"/>
<path d="M143.766 51H141.305L121.055 20.6953H120.938C120.969 21.5391 120.992 22.3984 121.008 23.2734C121.039 24.1328 121.062 25.0234 121.078 25.9453C121.109 26.8516 121.125 27.7891 121.125 28.7578V51H118.828V16.7344H121.312L141.492 46.9453H141.609C141.594 46.2578 141.57 45.4609 141.539 44.5547C141.523 43.6484 141.5 42.7188 141.469 41.7656C141.453 40.8125 141.445 39.9141 141.445 39.0703V16.7344H143.766V51ZM178.711 16.7344V38.9062C178.711 41.5781 178.195 43.8516 177.164 45.7266C176.133 47.5859 174.648 49.0078 172.711 49.9922C170.789 50.9766 168.484 51.4688 165.797 51.4688C161.719 51.4688 158.586 50.3672 156.398 48.1641C154.211 45.9453 153.117 42.8281 153.117 38.8125V16.7344H155.508V38.8125C155.508 42.25 156.398 44.8672 158.18 46.6641C159.977 48.4453 162.555 49.3359 165.914 49.3359C168.117 49.3359 169.992 48.9453 171.539 48.1641C173.086 47.3672 174.266 46.2109 175.078 44.6953C175.891 43.1641 176.297 41.3125 176.297 39.1406V16.7344H178.711ZM202.852 51L190.266 19.3594H190.148C190.18 19.9375 190.203 20.5469 190.219 21.1875C190.25 21.8125 190.273 22.4688 190.289 23.1562C190.305 23.8438 190.312 24.5625 190.312 25.3125V51H188.016V16.7344H191.672L203.812 47.25H203.953L216.188 16.7344H219.75V51H217.383V25.0312C217.383 24.4219 217.391 23.7969 217.406 23.1562C217.422 22.5156 217.438 21.8828 217.453 21.2578C217.484 20.6172 217.516 20 217.547 19.4062H217.406L204.773 51H202.852Z" fill="#EA0F0B"/>
</svg>
