<svg width="65" height="62" viewBox="0 0 65 62" fill="none" xmlns="http://www.w3.org/2000/svg">
<path d="M10.0479 42.0825C9.79035 41.8473 9.48662 41.663 9.15417 41.54C8.49479 41.2816 7.75521 41.2816 7.09583 41.54C6.76338 41.663 6.45966 41.8473 6.20208 42.0825C5.95552 42.3282 5.76224 42.6179 5.63333 42.935C5.42593 43.4055 5.36927 43.924 5.47049 44.4251C5.57171 44.9262 5.82628 45.3876 6.20208 45.7508C6.46534 45.979 6.76763 46.1625 7.09583 46.2933C7.42002 46.43 7.77056 46.5006 8.125 46.5006C8.47944 46.5006 8.82998 46.43 9.15417 46.2933C9.48238 46.1625 9.78467 45.979 10.0479 45.7508C10.4237 45.3876 10.6783 44.9262 10.7795 44.4251C10.8807 43.924 10.8241 43.4055 10.6167 42.935C10.4878 42.6179 10.2945 42.3282 10.0479 42.0825ZM18.9583 20.6667H56.875C57.5933 20.6667 58.2822 20.3945 58.7901 19.91C59.298 19.4256 59.5833 18.7685 59.5833 18.0833C59.5833 17.3982 59.298 16.7411 58.7901 16.2566C58.2822 15.7722 57.5933 15.5 56.875 15.5H18.9583C18.24 15.5 17.5512 15.7722 17.0433 16.2566C16.5353 16.7411 16.25 17.3982 16.25 18.0833C16.25 18.7685 16.5353 19.4256 17.0433 19.91C17.5512 20.3945 18.24 20.6667 18.9583 20.6667ZM10.0479 29.1658C9.66706 28.8074 9.18343 28.5646 8.65804 28.468C8.13265 28.3715 7.58905 28.4255 7.09583 28.6233C6.76763 28.7542 6.46534 28.9376 6.20208 29.1658C5.95552 29.4115 5.76224 29.7012 5.63333 30.0183C5.49005 30.3276 5.41604 30.6619 5.41604 31C5.41604 31.3381 5.49005 31.6724 5.63333 31.9817C5.77049 32.2947 5.96286 32.5831 6.20208 32.8342C6.46534 33.0624 6.76763 33.2458 7.09583 33.3767C7.42002 33.5133 7.77056 33.5839 8.125 33.5839C8.47944 33.5839 8.82998 33.5133 9.15417 33.3767C9.48238 33.2458 9.78467 33.0624 10.0479 32.8342C10.2871 32.5831 10.4795 32.2947 10.6167 31.9817C10.76 31.6724 10.834 31.3381 10.834 31C10.834 30.6619 10.76 30.3276 10.6167 30.0183C10.4878 29.7012 10.2945 29.4115 10.0479 29.1658ZM56.875 28.4167H18.9583C18.24 28.4167 17.5512 28.6888 17.0433 29.1733C16.5353 29.6578 16.25 30.3149 16.25 31C16.25 31.6851 16.5353 32.3422 17.0433 32.8267C17.5512 33.3112 18.24 33.5833 18.9583 33.5833H56.875C57.5933 33.5833 58.2822 33.3112 58.7901 32.8267C59.298 32.3422 59.5833 31.6851 59.5833 31C59.5833 30.3149 59.298 29.6578 58.7901 29.1733C58.2822 28.6888 57.5933 28.4167 56.875 28.4167ZM10.0479 16.2492C9.79035 16.014 9.48662 15.8296 9.15417 15.7067C8.66095 15.5088 8.11735 15.4548 7.59196 15.5513C7.06658 15.6479 6.58294 15.8907 6.20208 16.2492C5.96286 16.5003 5.77049 16.7886 5.63333 17.1017C5.49005 17.4109 5.41604 17.7453 5.41604 18.0833C5.41604 18.4214 5.49005 18.7558 5.63333 19.065C5.77049 19.3781 5.96286 19.6664 6.20208 19.9175C6.46534 20.1457 6.76763 20.3292 7.09583 20.46C7.58905 20.6578 8.13265 20.7119 8.65804 20.6153C9.18343 20.5188 9.66706 20.276 10.0479 19.9175C10.2871 19.6664 10.4795 19.3781 10.6167 19.065C10.76 18.7558 10.834 18.4214 10.834 18.0833C10.834 17.7453 10.76 17.4109 10.6167 17.1017C10.4795 16.7886 10.2871 16.5003 10.0479 16.2492ZM56.875 41.3333H18.9583C18.24 41.3333 17.5512 41.6055 17.0433 42.09C16.5353 42.5744 16.25 43.2315 16.25 43.9167C16.25 44.6018 16.5353 45.2589 17.0433 45.7434C17.5512 46.2278 18.24 46.5 18.9583 46.5H56.875C57.5933 46.5 58.2822 46.2278 58.7901 45.7434C59.298 45.2589 59.5833 44.6018 59.5833 43.9167C59.5833 43.2315 59.298 42.5744 58.7901 42.09C58.2822 41.6055 57.5933 41.3333 56.875 41.3333Z" fill="#EA0F0B"/>
</svg>
