<svg width="28" height="42" viewBox="0 0 28 42" fill="none" xmlns="http://www.w3.org/2000/svg">
<g filter="url(#filter0_d_65_5)">
<path d="M23.163 15.125L8.44782 0.752454C8.20613 0.514027 7.91858 0.324783 7.60176 0.195637C7.28495 0.0664912 6.94513 0 6.60192 0C6.25871 0 5.91889 0.0664912 5.60207 0.195637C5.28526 0.324783 4.99771 0.514027 4.75602 0.752454C4.27179 1.22907 4 1.8738 4 2.54584C4 3.21787 4.27179 3.86261 4.75602 4.33922L17.6253 17.0583L4.75602 29.6501C4.27179 30.1267 4 30.7714 4 31.4435C4 32.1155 4.27179 32.7602 4.75602 33.2369C4.9968 33.4772 5.28395 33.6684 5.6008 33.7994C5.91766 33.9304 6.25794 33.9986 6.60192 34C6.9459 33.9986 7.28618 33.9304 7.60303 33.7994C7.91989 33.6684 8.20703 33.4772 8.44782 33.2369L23.163 18.8644C23.4269 18.6261 23.6375 18.337 23.7816 18.0152C23.9256 17.6935 24 17.346 24 16.9947C24 16.6434 23.9256 16.2959 23.7816 15.9741C23.6375 15.6523 23.4269 15.3632 23.163 15.125Z" fill="#D1C7C7"/>
</g>
<defs>
<filter id="filter0_d_65_5" x="0" y="0" width="28" height="42" filterUnits="userSpaceOnUse" color-interpolation-filters="sRGB">
<feFlood flood-opacity="0" result="BackgroundImageFix"/>
<feColorMatrix in="SourceAlpha" type="matrix" values="0 0 0 0 0 0 0 0 0 0 0 0 0 0 0 0 0 0 127 0" result="hardAlpha"/>
<feOffset dy="4"/>
<feGaussianBlur stdDeviation="2"/>
<feComposite in2="hardAlpha" operator="out"/>
<feColorMatrix type="matrix" values="0 0 0 0 0 0 0 0 0 0 0 0 0 0 0 0 0 0 0.25 0"/>
<feBlend mode="normal" in2="BackgroundImageFix" result="effect1_dropShadow_65_5"/>
<feBlend mode="normal" in="SourceGraphic" in2="effect1_dropShadow_65_5" result="shape"/>
</filter>
</defs>
</svg>
