<svg width="12" height="12" viewBox="0 0 12 12" fill="none" xmlns="http://www.w3.org/2000/svg">
<path d="M6.00844 0C5.22162 0 4.4425 0.154976 3.71557 0.45608C2.98865 0.757184 2.32814 1.19852 1.77177 1.75489C0.648139 2.87852 0.016888 4.4025 0.016888 5.99156C0.0116501 7.37509 0.490696 8.71684 1.37098 9.78421L0.172668 10.9825C0.089531 11.0668 0.0332127 11.1738 0.0108198 11.29C-0.0115732 11.4062 0.000962781 11.5265 0.0468458 11.6356C0.0966104 11.7434 0.177284 11.834 0.278627 11.8959C0.37997 11.9577 0.497411 11.9881 0.616044 11.9831H6.00844C7.5975 11.9831 9.12148 11.3519 10.2451 10.2282C11.3687 9.10459 12 7.58061 12 5.99156C12 4.4025 11.3687 2.87852 10.2451 1.75489C9.12148 0.631251 7.5975 0 6.00844 0ZM6.00844 10.7848H2.06001L2.61722 10.2276C2.72882 10.1153 2.79145 9.96347 2.79145 9.80518C2.79145 9.64689 2.72882 9.49504 2.61722 9.38278C1.83268 8.5991 1.34412 7.56766 1.23479 6.46417C1.12545 5.36067 1.4021 4.25341 2.0176 3.33102C2.63311 2.40863 3.54938 1.72818 4.61032 1.4056C5.67126 1.08303 6.81123 1.13828 7.836 1.56195C8.86077 1.98561 9.70694 2.75149 10.2304 3.72908C10.7538 4.70667 10.922 5.8355 10.7065 6.92325C10.491 8.01099 9.90494 8.99036 9.04828 9.69448C8.19163 10.3986 7.11734 10.7839 6.00844 10.7848Z" fill="black"/>
</svg>
