<svg width="29" height="43" viewBox="0 0 29 43" fill="none" xmlns="http://www.w3.org/2000/svg">
<g filter="url(#filter0_d_65_4)">
<path d="M5.23395 19.375L19.9492 33.7475C20.1908 33.986 20.4784 34.1752 20.7952 34.3044C21.112 34.4335 21.4518 34.5 21.7951 34.5C22.1383 34.5 22.4781 34.4335 22.7949 34.3044C23.1117 34.1752 23.3993 33.986 23.641 33.7475C24.1252 33.2709 24.397 32.6262 24.397 31.9542C24.397 31.2821 24.1252 30.6374 23.641 30.1608L10.7717 17.4417L23.641 4.84991C24.1252 4.37329 24.397 3.72856 24.397 3.05652C24.397 2.38449 24.1252 1.73976 23.641 1.26314C23.4002 1.02278 23.113 0.831563 22.7962 0.700565C22.4793 0.569568 22.139 0.501397 21.7951 0.5C21.4511 0.501397 21.1108 0.569568 20.7939 0.700565C20.4771 0.831563 20.1899 1.02278 19.9492 1.26314L5.23395 15.6356C4.97005 15.8739 4.75944 16.163 4.61539 16.4848C4.47134 16.8065 4.39697 17.154 4.39697 17.5053C4.39697 17.8566 4.47134 18.2041 4.61539 18.5259C4.75944 18.8477 4.97005 19.1368 5.23395 19.375Z" fill="#D1C7C7"/>
</g>
<defs>
<filter id="filter0_d_65_4" x="0.396973" y="0.5" width="28" height="42" filterUnits="userSpaceOnUse" color-interpolation-filters="sRGB">
<feFlood flood-opacity="0" result="BackgroundImageFix"/>
<feColorMatrix in="SourceAlpha" type="matrix" values="0 0 0 0 0 0 0 0 0 0 0 0 0 0 0 0 0 0 127 0" result="hardAlpha"/>
<feOffset dy="4"/>
<feGaussianBlur stdDeviation="2"/>
<feComposite in2="hardAlpha" operator="out"/>
<feColorMatrix type="matrix" values="0 0 0 0 0 0 0 0 0 0 0 0 0 0 0 0 0 0 0.25 0"/>
<feBlend mode="normal" in2="BackgroundImageFix" result="effect1_dropShadow_65_4"/>
<feBlend mode="normal" in="SourceGraphic" in2="effect1_dropShadow_65_4" result="shape"/>
</filter>
</defs>
</svg>
