<svg width="12" height="12" viewBox="0 0 12 12" fill="none" xmlns="http://www.w3.org/2000/svg">
<path d="M12 3.144C12.0004 3.06504 11.9853 2.98676 11.9555 2.91366C11.9256 2.84056 11.8816 2.77407 11.826 2.71801L9.28199 0.17401C9.22593 0.118401 9.15944 0.0744059 9.08634 0.0445472C9.01324 0.0146885 8.93496 -0.000446507 8.856 1.00286e-05C8.77703 -0.000446507 8.69875 0.0146885 8.62565 0.0445472C8.55255 0.0744059 8.48606 0.118401 8.43 0.17401L6.732 1.87201L0.17401 8.43C0.118401 8.48606 0.0744059 8.55255 0.0445472 8.62565C0.0146885 8.69875 -0.000446507 8.77703 1.00286e-05 8.856V11.4C1.00286e-05 11.5591 0.063224 11.7117 0.175746 11.8243C0.288267 11.9368 0.440879 12 0.600009 12H3.144C3.22796 12.0046 3.31194 11.9914 3.3905 11.9615C3.46905 11.9315 3.54043 11.8853 3.6 11.826L10.122 5.268L11.826 3.6C11.8808 3.54185 11.9254 3.47492 11.958 3.402C11.9638 3.35418 11.9638 3.30583 11.958 3.258C11.9608 3.23007 11.9608 3.20193 11.958 3.174L12 3.144ZM2.89801 10.8H1.20001V9.10199L7.158 3.144L8.856 4.842L2.89801 10.8ZM9.70199 3.996L8.004 2.29801L8.856 1.45201L10.548 3.144L9.70199 3.996Z" fill="#EA0F0B"/>
</svg>
